<svg width="164" height="51" viewBox="0 0 164 51" fill="none" xmlns="http://www.w3.org/2000/svg">
<path d="M0.201715 0.391357H15.1927V4.25762H5.8062V7.13359H14.5132V10.8208H5.8062V14.3868H15.4613V18.4848H0.185913L0.201715 0.391357Z" fill="white"/>
<path d="M17.4998 12.5065L22.8199 12.1693C22.8764 12.8786 23.1199 13.5602 23.5257 14.1446C23.8193 14.5111 24.1962 14.8022 24.6249 14.9936C25.0537 15.1851 25.522 15.2715 25.9908 15.2455C26.6551 15.2885 27.3124 15.0882 27.8397 14.6819C28.0382 14.5274 28.1994 14.3302 28.3116 14.105C28.4237 13.8798 28.4838 13.6324 28.4876 13.3808C28.4829 13.1387 28.4253 12.9006 28.3189 12.6831C28.2124 12.4656 28.0596 12.2741 27.8713 12.122C27.4552 11.7532 26.5018 11.4003 25.0058 11.0685C22.5477 10.5136 20.7919 9.78146 19.7385 8.87196C19.2296 8.44478 18.8234 7.90865 18.5499 7.30322C18.2764 6.6978 18.1425 6.03861 18.1582 5.37445C18.1603 4.43614 18.4408 3.51955 18.9641 2.74076C19.5646 1.86464 20.4115 1.18638 21.3977 0.791823C22.8187 0.259091 24.3323 0.0172561 25.8486 0.0807081C28.1592 0.0807081 29.915 0.510884 31.116 1.37122C32.3169 2.23156 33.0403 3.59934 33.2861 5.47453L28.0188 5.78528C28.0029 5.44788 27.9179 5.11733 27.769 4.81414C27.6201 4.51095 27.4105 4.24159 27.1532 4.02278C26.8959 3.80398 26.5963 3.6404 26.2731 3.54218C25.9499 3.44397 25.61 3.41322 25.2745 3.45184C24.7534 3.41371 24.2353 3.55907 23.8101 3.86271C23.6558 3.98102 23.5308 4.13333 23.4449 4.30782C23.359 4.48232 23.3146 4.67428 23.315 4.86877C23.32 5.02077 23.359 5.16973 23.4292 5.30465C23.4994 5.43957 23.599 5.557 23.7206 5.64833C24.29 6.00311 24.9299 6.22959 25.5958 6.31202C27.4071 6.63186 29.1749 7.16219 30.8632 7.89223C31.8063 8.32987 32.6062 9.02568 33.1703 9.8991C33.6535 10.7072 33.9033 11.6334 33.8919 12.5749C33.8979 13.7181 33.5623 14.837 32.928 15.788C32.271 16.7807 31.3342 17.5561 30.2363 18.0161C28.8517 18.5651 27.3689 18.8233 25.8802 18.7747C22.8041 18.7747 20.6725 18.1812 19.4856 16.9943C18.3054 15.7859 17.6004 14.1926 17.4998 12.5065Z" fill="white"/>
<path d="M35.7565 12.5064L41.0766 12.1693C41.1356 12.878 41.3789 13.5589 41.7824 14.1445C42.0771 14.5111 42.4549 14.8021 42.8845 14.9936C43.3141 15.185 43.7832 15.2714 44.2528 15.2454C44.9154 15.2876 45.5707 15.0873 46.0964 14.6818C46.2922 14.5295 46.4518 14.3357 46.5638 14.1144C46.6758 13.8931 46.7374 13.6498 46.7443 13.4018C46.7396 13.1597 46.6821 12.9216 46.5756 12.7041C46.4691 12.4866 46.3164 12.2951 46.128 12.1429C45.7171 11.7742 44.7637 11.4213 43.2625 11.0894C40.8044 10.5346 39.0486 9.80246 37.9952 8.89296C37.4864 8.46578 37.0802 7.92962 36.8066 7.32419C36.5331 6.71877 36.3992 6.05958 36.415 5.39542C36.4186 4.45656 36.7009 3.53993 37.2261 2.76173C37.8233 1.88468 38.6689 1.20602 39.6544 0.812793C41.0757 0.280894 42.5891 0.0391181 44.1053 0.101711C46.4159 0.101711 48.1805 0.531886 49.399 1.39222C50.6175 2.25256 51.3392 3.62031 51.5639 5.4955L46.2965 5.80629C46.2291 5.12575 45.9164 4.49297 45.4169 4.02591C44.8772 3.63952 44.2197 3.45326 43.5575 3.49917C43.0347 3.46024 42.5147 3.60559 42.0879 3.91001C41.9336 4.02832 41.8086 4.18066 41.7227 4.35515C41.6368 4.52965 41.5924 4.72162 41.5928 4.9161C41.603 5.06235 41.6451 5.20459 41.7161 5.33288C41.787 5.46118 41.8852 5.5724 42.0036 5.65878C42.5726 6.01449 43.2127 6.24105 43.8788 6.32248C45.6903 6.64175 47.4581 7.1721 49.1462 7.90269C50.0905 8.33861 50.8908 9.03479 51.4533 9.90956C51.9389 10.7167 52.1888 11.6436 52.1749 12.5854C52.1829 13.7281 51.849 14.847 51.2163 15.7985C50.5579 16.7899 49.6216 17.5649 48.5247 18.0266C47.141 18.5894 45.6566 18.8619 44.1633 18.8272C41.0871 18.8272 38.9556 18.2338 37.7687 17.0468C36.5672 15.829 35.8517 14.2144 35.7565 12.5064Z" fill="white"/>
<path d="M54.9771 0.391357H69.9681V4.25762H60.5869V7.13359H69.2886V10.8208H60.5869V14.3868H70.2367V18.4848H54.9613L54.9771 0.391357Z" fill="white"/>
<path d="M73.2865 0.391357H78.5117L85.3225 10.3994V0.391357H90.5898V18.5111H85.3225L78.5486 8.57685V18.5111H73.2812L73.2865 0.391357Z" fill="white"/>
<path d="M93.0392 0.391357H110.042V4.86335H104.338V18.5111H98.7437V4.88444H93.0392V0.391357Z" fill="white"/>
<path d="M112.792 0.391357H118.381V18.5111H112.792V0.391357Z" fill="white"/>
<path d="M133.535 15.5245H127.214L126.334 18.5111H120.598L127.398 0.391357H133.498L140.298 18.4901H134.441L133.535 15.5245ZM132.376 11.6109L130.38 5.132L128.389 11.6109H132.376Z" fill="white"/>
<path d="M142.084 0.391357H147.667V14.0339H156.395V18.4901H142.084V0.391357Z" fill="white"/>
<path d="M158.618 5.40088H163.991V10.4418H158.618V5.40088ZM158.618 13.5232H163.991V17.6633C164.061 18.9348 163.728 20.196 163.037 21.2662C162.178 22.3142 161.06 23.1187 159.793 23.5997L158.618 21.4032C159.36 21.1033 160.031 20.6511 160.588 20.0758C160.95 19.6259 161.161 19.0726 161.189 18.4956H158.618V13.5232Z" fill="white"/>
<path d="M26.5281 50.2674V36.0982H23.4572V34.6286H26.5281V32.4058C26.5281 29.7721 27.3867 26.9014 31.3952 26.9014C31.9844 26.9066 32.5711 26.9791 33.1439 27.1173V28.608C32.5088 28.4841 31.8631 28.4223 31.2161 28.4236C29.1091 28.4236 28.319 29.7352 28.319 32.4584V34.6181H32.2169V36.0877H28.3032V50.2569L26.5281 50.2674Z" fill="white"/>
<path d="M35.8619 50.2675V27.2122H37.6528V50.2675H35.8619Z" fill="white"/>
<path d="M55.5304 47.2964C55.5181 48.2925 55.6028 49.2875 55.7832 50.2672H54.066C53.8501 49.4831 53.742 48.6733 53.7447 47.86C53.1337 49.0135 51.564 50.6412 47.8821 50.6412C43.7315 50.6412 41.9458 48.2972 41.9458 45.9479C41.9458 42.5083 44.9851 40.9439 50.3736 40.9439H53.7711V39.3637C53.7711 37.7835 53.2443 35.7029 49.1568 35.7029C45.5434 35.7029 45.0114 37.3621 44.6164 38.6474H42.8255C43.0414 36.9249 44.2582 34.2649 49.1937 34.2649C53.2707 34.2649 55.5567 35.7661 55.5567 39.211L55.5304 47.2964ZM53.7816 42.2924H50.2735C46.3072 42.2924 43.8368 43.1984 43.8368 45.8847C43.8368 47.86 45.4486 49.2032 47.9506 49.2032C53.0652 49.2032 53.7816 46.2324 53.7816 42.8507V42.2924Z" fill="white"/>
<path d="M60.961 34.6287C63.5947 42.6983 65.1433 47.3283 65.4277 48.7031H65.4646C65.749 47.4495 67.54 42.5403 70.3264 34.6287H72.2595C75.5832 44.2943 76.584 47.0755 76.9053 48.3238H76.9422C77.469 46.6014 78.2643 44.2574 81.5564 34.6287H83.4527L77.8008 50.2675H75.8361C73.9029 44.7315 71.58 37.9418 71.2218 36.5038H71.1849C70.8268 38.0367 68.7883 43.6359 66.4443 50.2675H64.3005L59.0331 34.6287H60.961Z" fill="white"/>
<path d="M87.1451 50.2675V27.2122H88.936V50.2675H87.1451Z" fill="white"/>
<path d="M95.1989 42.6349C95.2305 46.6697 97.5587 49.1717 100.993 49.1717C104.427 49.1717 105.502 47.5125 106.145 46.2325H107.967C107.219 48.2974 105.333 50.6413 100.925 50.6413C95.4886 50.6413 93.3817 46.5433 93.3817 42.5717C93.3817 38.0997 95.9153 34.2493 101.141 34.2493C106.645 34.2493 108.399 38.4105 108.399 41.3497C108.399 41.7869 108.399 42.2293 108.362 42.6349H95.1989ZM106.529 41.2496C106.492 38.1524 104.559 35.7083 101.056 35.7083C97.3691 35.7083 95.694 37.9628 95.299 41.2496H106.529Z" fill="white"/>
<path d="M113.182 45.9481C113.787 47.9813 115.436 49.2033 118.26 49.2033C121.42 49.2033 122.726 47.9181 122.726 46.1693C122.726 44.4206 121.868 43.5093 117.864 42.6665C113.25 41.6973 112.107 40.4753 112.107 38.4105C112.107 36.2509 113.967 34.2493 118.007 34.2493C122.047 34.2493 123.98 36.4089 124.264 38.6317H122.479C122.157 37.3149 120.977 35.6873 117.938 35.6873C114.899 35.6873 113.93 37.0357 113.93 38.2841C113.93 39.7221 114.788 40.4437 118.328 41.1969C123.374 42.2504 124.649 43.6989 124.649 46.0429C124.649 48.8925 122.015 50.6413 118.249 50.6413C114.172 50.6413 111.886 48.7661 111.401 45.9481H113.182Z" fill="white"/>
<path d="M129.49 45.9481C130.095 47.9813 131.739 49.2033 134.567 49.2033C137.728 49.2033 139.034 47.9181 139.034 46.1693C139.034 44.4206 138.175 43.5093 134.172 42.6665C129.558 41.6973 128.415 40.4753 128.415 38.4105C128.415 36.2509 130.274 34.2493 134.314 34.2493C138.355 34.2493 140.288 36.4089 140.572 38.6317H138.786C138.465 37.3149 137.285 35.6873 134.241 35.6873C131.196 35.6873 130.238 37.0357 130.238 38.2841C130.238 39.7221 131.096 40.4437 134.636 41.1969C139.677 42.2504 140.957 43.6989 140.957 46.0429C140.957 48.8925 138.323 50.6413 134.557 50.6413C130.48 50.6413 128.188 48.7661 127.709 45.9481H129.49Z" fill="white"/>
</svg>
