<svg width="153" height="55" viewBox="0 0 153 55" fill="none" xmlns="http://www.w3.org/2000/svg">
<path d="M0.83487 0.815308H14.7611V4.40209H6.04132V7.0787H14.1299V10.504H6.04132V13.8168H15.0107V17.6237H0.82019L0.83487 0.815308Z" fill="white"/>
<path d="M16.9044 12.0651L21.8466 11.7568C21.8991 12.4157 22.1254 13.0489 22.5023 13.5918C22.7753 13.9317 23.1256 14.2014 23.5239 14.3784C23.9223 14.5555 24.3572 14.6347 24.7924 14.6096C25.4089 14.651 26.0194 14.4667 26.5099 14.091C26.6947 13.9466 26.8447 13.7627 26.9489 13.5526C27.0531 13.3426 27.1087 13.1119 27.1118 12.8774C27.1068 12.6526 27.0531 12.4316 26.9542 12.2297C26.8553 12.0278 26.7138 11.8497 26.5393 11.7079C26.1543 11.3654 25.267 11.0392 23.8773 10.7293C21.5971 10.2399 19.9627 9.53532 18.9841 8.68878C18.5115 8.29293 18.1342 7.79572 17.88 7.23409C17.6259 6.67246 17.5015 6.06082 17.5161 5.44454C17.518 4.57287 17.7786 3.72138 18.2648 2.9979C18.8241 2.18541 19.6104 1.55569 20.5255 1.18738C21.8456 0.692482 23.2517 0.467837 24.6603 0.526782C26.8068 0.526782 28.4379 0.926406 29.5535 1.72564C30.6692 2.52488 31.3412 3.7955 31.5696 5.53751L26.6763 5.8262C26.6609 5.513 26.5815 5.20629 26.4429 4.92498C26.3044 4.64367 26.1096 4.39373 25.8707 4.1906C25.6318 3.98748 25.3539 3.83548 25.0539 3.74395C24.754 3.65243 24.4385 3.62333 24.1269 3.65848C23.642 3.62192 23.1598 3.75896 22.7666 4.04507C22.6229 4.15472 22.5066 4.29616 22.4268 4.45832C22.347 4.62049 22.3058 4.79893 22.3066 4.97967C22.3113 5.12018 22.3476 5.25784 22.4128 5.38238C22.478 5.50693 22.5705 5.61513 22.6834 5.69897C23.2107 6.03288 23.8058 6.24518 24.4254 6.32042C26.1079 6.61824 27.7501 7.11088 29.3187 7.78841C30.1929 8.19786 30.9353 8.84362 31.4619 9.65274C31.9108 10.4053 32.1428 11.2673 32.1323 12.1434C32.1372 13.2038 31.8254 14.2414 31.2368 15.1234C30.6265 16.0456 29.7563 16.766 28.7364 17.1933C27.4501 17.7033 26.0726 17.9432 24.6896 17.8979C21.832 17.8979 19.8518 17.3482 18.7492 16.2489C17.6496 15.1226 16.9944 13.6366 16.9044 12.0651Z" fill="white"/>
<path d="M33.8645 12.0651L38.8067 11.7569C38.8615 12.4152 39.0875 13.0478 39.4624 13.5919C39.7364 13.9318 40.0876 14.2015 40.4867 14.3785C40.8859 14.5555 41.3215 14.6347 41.7574 14.6097C42.3723 14.6503 42.981 14.4659 43.47 14.091C43.6548 13.9467 43.8048 13.7627 43.909 13.5527C44.0131 13.3426 44.0688 13.1119 44.0719 12.8774C44.0669 12.6527 44.0131 12.4316 43.9143 12.2297C43.8154 12.0278 43.6739 11.8497 43.4994 11.7079C43.1177 11.3654 42.2304 11.0392 40.8374 10.7293C38.5621 10.24 36.9228 9.53534 35.9441 8.6888C35.4716 8.29295 35.0942 7.79574 34.8401 7.23411C34.586 6.67248 34.4616 6.06084 34.4762 5.44456C34.4795 4.57239 34.7418 3.72085 35.2297 2.99792C35.7858 2.18438 36.5709 1.55425 37.4855 1.1874C38.8059 0.693277 40.2118 0.468658 41.6204 0.526805C43.7669 0.526805 45.4061 0.926428 46.5381 1.72566C47.6701 2.5249 48.3405 3.79552 48.5492 5.53753L43.656 5.82622C43.6412 5.51324 43.5624 5.20663 43.4243 4.92533C43.2863 4.64404 43.092 4.39406 42.8535 4.19087C42.615 3.98767 42.3374 3.83558 42.0377 3.74401C41.7381 3.65244 41.4228 3.62334 41.1114 3.6585C40.6249 3.6212 40.141 3.75824 39.7462 4.04509C39.6026 4.15474 39.4862 4.29619 39.4064 4.45835C39.3266 4.62051 39.2855 4.79896 39.2863 4.97969C39.2911 5.12069 39.328 5.25874 39.3942 5.38336C39.4603 5.50799 39.5539 5.61591 39.6679 5.69899C40.1948 6.0338 40.7901 6.24617 41.4099 6.32044C43.0926 6.61748 44.7349 7.11015 46.3032 7.78843C47.1784 8.19656 47.9211 8.8426 48.4465 9.65277C48.8977 10.4043 49.1299 11.267 49.1169 12.1435C49.1235 13.2033 48.8134 14.241 48.2263 15.1234C47.6146 16.0444 46.7448 16.7645 45.7258 17.1933C44.4377 17.7028 43.0587 17.9426 41.6742 17.898C38.8165 17.898 36.8364 17.3483 35.7337 16.2489C34.6252 15.1263 33.9611 13.6399 33.8645 12.0651Z" fill="white"/>
<path d="M51.7201 0.815308H65.6464V4.40209H56.9315V7.0787H65.0152V10.504H56.9315V13.8168H65.896V17.6237H51.7054L51.7201 0.815308Z" fill="white"/>
<path d="M68.729 0.815308H73.5831L79.9101 10.1125V0.815308H84.8034V17.6286H79.9101L73.6174 8.39499V17.6286H68.7241L68.729 0.815308Z" fill="white"/>
<path d="M87.0789 0.815308H102.874V4.9648H97.5749V17.6286H92.3783V4.9648H87.0789V0.815308Z" fill="white"/>
<path d="M105.429 0.815308H110.62V17.6286H105.429V0.815308Z" fill="white"/>
<path d="M124.698 14.8541H118.826L118.009 17.6286H112.681L118.998 0.815308H124.664L130.981 17.6286H125.54L124.698 14.8541ZM123.622 11.2184L121.767 5.17034L119.918 11.2184H123.622Z" fill="white"/>
<path d="M132.64 0.815308H137.827V13.4889H145.935V17.6286H132.64V0.815308Z" fill="white"/>
<path d="M148 5.44922H152.991V10.1272H148V5.44922ZM148 12.9946H152.991V16.8359C153.057 18.0171 152.747 19.1887 152.106 20.1829C151.309 21.158 150.269 21.9057 149.091 22.3506L148 20.3101C148.692 20.0351 149.316 19.6145 149.83 19.077C150.169 18.6601 150.364 18.1455 150.388 17.609H148V12.9946Z" fill="white"/>
<path d="M2.51326 41.2847C2.54751 45.0379 4.70545 47.3622 7.89587 47.3622C11.0863 47.3622 12.0796 45.8208 12.6766 44.6268H14.3697C13.6748 46.545 11.923 48.7274 7.82735 48.7274C2.77749 48.7274 0.82019 44.9204 0.82019 41.226C0.82019 37.0716 3.17874 33.4995 8.02798 33.4995C13.1415 33.4995 14.7709 37.3652 14.7709 40.0957C14.7709 40.5018 14.7709 40.9079 14.7367 41.2847H2.51326ZM13.0338 40.0076C12.9996 37.1303 11.2037 34.8647 7.94969 34.8647C4.52439 34.8647 2.96833 36.9591 2.60134 40.0076H13.0338Z" fill="white"/>
<path d="M30.2189 45.615C30.2089 46.5401 30.2859 47.4641 30.4489 48.3748H28.8586C28.6555 47.6469 28.5551 46.8942 28.5601 46.1386C27.9925 47.2151 26.5294 48.7271 23.109 48.7271C19.2579 48.7271 17.5942 46.5447 17.5942 44.3672C17.5942 41.1719 20.4177 39.7186 25.4235 39.7186H28.5796V38.2506C28.5796 36.7826 28.0903 34.8498 24.2931 34.8498C20.9363 34.8498 20.4372 36.3912 20.0751 37.5802H18.4163C18.6169 35.985 19.7473 33.5139 24.3323 33.5139C28.1148 33.5139 30.2434 34.9085 30.2434 38.1038L30.2189 45.615ZM28.5894 40.9664H25.3354C21.6459 40.9664 19.3558 41.808 19.3558 44.3085C19.3558 46.1386 20.8532 47.3864 23.1775 47.3864C27.9288 47.3864 28.5894 44.6265 28.5894 41.49V40.9664Z" fill="white"/>
<path d="M35.543 44.3675C36.1057 46.2563 37.6324 47.3867 40.2552 47.3867C43.1912 47.3867 44.4096 46.1976 44.4096 44.573C44.4096 42.9485 43.612 42.1019 39.8931 41.3141C35.6066 40.4137 34.5448 39.2834 34.5448 37.3652C34.5448 35.359 36.2721 33.4995 40.0252 33.4995C43.7783 33.4995 45.5742 35.5058 45.8384 37.5658H44.1796C43.8762 36.3474 42.7801 34.8354 39.9567 34.8354C37.1333 34.8354 36.2378 36.0832 36.2378 37.2478C36.2378 38.5836 37.0354 39.254 40.3237 39.9489C45.0066 40.9275 46.1956 42.2732 46.1956 44.4556C46.1956 47.0979 43.749 48.7274 40.2503 48.7274C36.4629 48.7274 34.3343 46.9805 33.889 44.3675H35.543Z" fill="white"/>
<path d="M50.2228 33.8273C53.5796 42.1459 55.0427 45.5712 55.6055 47.137H55.6397C56.3052 45.3657 57.6313 41.9942 60.8559 33.8273H62.5833L56.3345 49.202C54.5779 53.5032 53.3986 54.4623 50.3892 54.4623C49.879 54.464 49.3691 54.4346 48.8625 54.3742V52.9062C49.3496 52.9647 49.8398 52.9941 50.3305 52.9943C52.7233 52.9943 53.4866 51.9765 54.7344 48.9818L48.3732 33.8126L50.2228 33.8273Z" fill="white"/>
<path d="M73.0744 40.2424V41.6566H64.702V40.2327L73.0744 40.2424Z" fill="white"/>
<path d="M90.9153 47.3867C90.9153 52.0402 88.5567 54.4819 83.7368 54.4819C79.421 54.4819 77.6251 52.3582 77.2288 50.1513H78.9219C79.5188 52.1576 81.4125 53.0873 83.8151 53.0873C88.1359 53.0873 89.3299 50.6407 89.3299 46.956V45.4734C88.4344 47.3622 86.8049 48.3751 83.7809 48.3751C79.8956 48.3751 76.9303 45.6153 76.9303 41.1135C76.9303 36.2202 80.1207 33.4995 84.0402 33.4995C87.4264 33.4995 88.8895 34.8941 89.3543 36.0538C89.3886 35.2122 89.4228 34.1944 89.4522 33.8469H91.0131C91.0131 34.3705 90.9495 36.6655 90.9495 38.0601L90.9153 47.3867ZM78.6821 41.0548C78.6821 44.5143 80.7715 47.0099 83.9619 47.0099C88.1163 47.0099 89.3788 44.5975 89.3788 40.8199C89.3788 37.0422 88.0478 34.8647 84.0647 34.8647C80.2186 34.8647 78.6576 37.742 78.6576 41.0548H78.6821Z" fill="white"/>
<path d="M109.818 41.0841C109.818 45.1211 107.259 48.7274 102.312 48.7274C97.8246 48.7274 95.0354 45.5027 95.0354 41.1135C95.0354 36.9591 97.6582 33.4995 102.478 33.4995C106.892 33.4995 109.818 36.5187 109.818 41.0841ZM96.797 41.1135C96.797 44.573 98.9206 47.3622 102.444 47.3622C105.967 47.3622 108.056 44.7736 108.056 41.1135C108.056 37.6882 106.065 34.8647 102.375 34.8647C98.5879 34.8647 96.797 37.6246 96.797 41.1135Z" fill="white"/>
<path d="M114.07 26.9767H115.734V29.7952H114.07V26.9767ZM114.07 33.8615H115.734V48.3897H114.07V33.8615Z" fill="white"/>
<path d="M121.175 37.5071C121.175 36.23 121.175 35.0115 121.141 33.8469H122.77C122.84 34.7651 122.861 35.6863 122.834 36.6067C123.568 35.1388 124.928 33.4995 128.349 33.4995C131.285 33.4995 133.932 34.9675 133.932 38.9604V48.3751H132.268V39.21C132.268 36.6214 131.04 34.9381 128.153 34.9381C124.199 34.9381 122.834 37.8154 122.834 40.9813V48.3898H121.175V37.5071Z" fill="white"/>
<path d="M152.076 47.3867C152.076 52.0402 149.718 54.4819 144.898 54.4819C140.582 54.4819 138.786 52.3582 138.39 50.1513H140.083C140.68 52.1576 142.574 53.0873 144.976 53.0873C149.292 53.0873 150.491 50.6407 150.491 46.956V45.4734C149.595 47.3622 147.966 48.3751 144.942 48.3751C141.057 48.3751 138.091 45.6153 138.091 41.1135C138.091 36.2202 141.282 33.4995 145.201 33.4995C148.587 33.4995 150.05 34.8941 150.515 36.0538C150.55 35.2122 150.579 34.1944 150.613 33.8469H152.174C152.174 34.3705 152.111 36.6655 152.111 38.0601L152.076 47.3867ZM139.843 41.0548C139.843 44.5143 141.933 47.0099 145.123 47.0099C149.277 47.0099 150.54 44.5975 150.54 40.8199C150.54 37.0422 149.209 34.8647 145.221 34.8647C141.38 34.8647 139.819 37.742 139.819 41.0548H139.843Z" fill="white"/>
</svg>
