<svg width="192" height="51" viewBox="0 0 192 51" fill="none" xmlns="http://www.w3.org/2000/svg">
<path d="M0.0137635 0.279297H13.0713V3.64233H4.89543V6.15199H12.4794V9.36361H4.89543V12.4743H13.3053V16.0438H0L0.0137635 0.279297Z" fill="white"/>
<path d="M15.0809 10.8272L19.7148 10.5382C19.7641 11.1559 19.9762 11.7496 20.3296 12.2587C20.5856 12.5773 20.914 12.8302 21.2875 12.9962C21.661 13.1622 22.0688 13.2365 22.4768 13.213C23.0549 13.2518 23.6273 13.0789 24.0872 12.7267C24.2605 12.5913 24.4011 12.4189 24.4988 12.2219C24.5965 12.025 24.6487 11.8086 24.6515 11.5888C24.6469 11.3781 24.5965 11.1708 24.5038 10.9815C24.4111 10.7922 24.2783 10.6252 24.1147 10.4923C23.7538 10.1711 22.9218 9.86526 21.6188 9.57468C19.4808 9.11588 17.9484 8.4552 17.0308 7.66147C16.5877 7.2903 16.2339 6.82413 15.9957 6.29753C15.7574 5.77093 15.6407 5.19745 15.6544 4.61961C15.6562 3.80232 15.9005 3.00395 16.3564 2.32559C16.8808 1.56379 17.6181 0.973356 18.4761 0.628017C19.7138 0.163993 21.0322 -0.0466385 22.3529 0.00862994C24.3656 0.00862994 25.8949 0.383325 26.941 1.1327C27.987 1.88208 28.6171 3.07343 28.8312 4.70677L24.2432 4.97748C24.2288 4.68382 24.1543 4.39623 24.0244 4.13247C23.8945 3.86871 23.7119 3.63436 23.4879 3.4439C23.2639 3.25344 23.0033 3.11091 22.722 3.0251C22.4408 2.93929 22.145 2.91201 21.8528 2.94497C21.3982 2.9107 20.9461 3.03916 20.5774 3.30743C20.4427 3.41024 20.3336 3.54287 20.2588 3.69492C20.1839 3.84697 20.1454 4.01428 20.1461 4.18374C20.1505 4.31549 20.1845 4.44456 20.2457 4.56134C20.3068 4.67811 20.3935 4.77958 20.4994 4.85818C20.9938 5.17127 21.5518 5.37031 22.1327 5.44086C23.7103 5.7201 25.25 6.18201 26.7207 6.81727C27.5405 7.20118 28.2365 7.80666 28.7303 8.56531C29.1511 9.2709 29.3687 10.0791 29.3589 10.9006C29.3635 11.8948 29.0711 12.8678 28.5193 13.6947C27.947 14.5594 27.1311 15.2348 26.1748 15.6355C24.9687 16.1137 23.6772 16.3385 22.3805 16.2961C19.7011 16.2961 17.8444 15.7808 16.8106 14.75C15.7796 13.6939 15.1653 12.3007 15.0809 10.8272Z" fill="white"/>
<path d="M30.983 10.8271L35.6169 10.5381C35.6683 11.1554 35.8802 11.7485 36.2317 12.2586C36.4886 12.5773 36.8179 12.8302 37.1921 12.9961C37.5664 13.1621 37.9748 13.2364 38.3835 13.2129C38.96 13.251 39.5308 13.0781 39.9893 12.7266C40.1626 12.5913 40.3032 12.4188 40.4009 12.2218C40.4986 12.0249 40.5508 11.8085 40.5536 11.5887C40.549 11.378 40.4986 11.1708 40.4059 10.9814C40.3132 10.7921 40.1804 10.6252 40.0168 10.4922C39.659 10.171 38.827 9.86517 37.5209 9.57459C35.3875 9.11579 33.8505 8.45511 32.9329 7.66138C32.4898 7.29022 32.136 6.82404 31.8978 6.29744C31.6595 5.77085 31.5428 5.19736 31.5565 4.61952C31.5597 3.80176 31.8056 3.00335 32.2631 2.32551C32.7845 1.56272 33.5206 0.971894 34.3781 0.627931C35.6161 0.164632 36.9343 -0.0459757 38.255 0.00854405C40.2677 0.00854405 41.8046 0.383239 42.866 1.13262C43.9274 1.882 44.5559 3.07335 44.7517 4.70668L40.1637 4.97739C40.1498 4.68393 40.0759 4.39644 39.9465 4.13269C39.8171 3.86895 39.6349 3.63456 39.4113 3.44404C39.1877 3.25352 38.9273 3.11093 38.6464 3.02507C38.3654 2.93921 38.0698 2.91191 37.7779 2.94488C37.3217 2.90991 36.8679 3.03839 36.4978 3.30734C36.3631 3.41015 36.2541 3.54279 36.1792 3.69483C36.1044 3.84688 36.0658 4.0142 36.0665 4.18366C36.0711 4.31586 36.1057 4.44528 36.1677 4.56213C36.2297 4.67898 36.3175 4.7802 36.4244 4.8581C36.9184 5.17202 37.4766 5.37113 38.0577 5.44077C39.6355 5.71928 41.1753 6.18122 42.6458 6.81718C43.4663 7.19985 44.1627 7.80559 44.6553 8.56522C45.0784 9.26986 45.2961 10.0787 45.2839 10.9005C45.2902 11.8943 44.9994 12.8673 44.4489 13.6947C43.8754 14.5582 43.0598 15.2333 42.1044 15.6354C40.8966 16.1131 39.6037 16.3379 38.3055 16.2961C35.6261 16.2961 33.7695 15.7807 32.7356 14.7499C31.6962 13.6973 31.0736 12.3037 30.983 10.8271Z" fill="white"/>
<path d="M47.7247 0.279297H60.7822V3.64233H52.611V6.15199H60.1904V9.36361H52.611V12.4743H61.0162V16.0438H47.7109L47.7247 0.279297Z" fill="white"/>
<path d="M63.6727 0.279297H68.2241L74.1564 8.99656V0.279297H78.7444V16.0438H74.1564L68.2562 7.38617V16.0438H63.6682L63.6727 0.279297Z" fill="white"/>
<path d="M80.8779 0.279297H95.688V4.16995H90.7192V16.0438H85.8467V4.16995H80.8779V0.279297Z" fill="white"/>
<path d="M98.083 0.279297H102.951V16.0438H98.083V0.279297Z" fill="white"/>
<path d="M116.151 13.4424H110.645L109.879 16.0438H104.882L110.806 0.279297H116.119L122.042 16.0438H116.94L116.151 13.4424ZM115.141 10.0335L113.402 4.36264L111.668 10.0335H115.141Z" fill="white"/>
<path d="M123.597 0.279297H128.46V12.1623H136.063V16.0438H123.597V0.279297Z" fill="white"/>
<path d="M137.999 4.62415H142.679V9.02866H137.999V4.62415ZM137.999 11.6989H142.679V15.3005C142.74 16.408 142.449 17.5066 141.848 18.4387C141.101 19.353 140.126 20.054 139.022 20.4712L137.999 18.558C138.647 18.3001 139.232 17.9058 139.715 17.4018C140.032 17.0109 140.216 16.5284 140.238 16.0254H137.999V11.6989Z" fill="white"/>
<path d="M13.108 43.6414C13.108 48.0047 10.8966 50.2941 6.38196 50.2941C2.33531 50.2941 0.651508 48.3029 0.279877 46.2337H1.86733C2.42707 48.1148 4.20264 49.0094 6.45537 49.0094C10.502 49.0094 11.6261 46.7154 11.6261 43.2606V41.8475C10.7819 43.6185 9.25865 44.5682 6.42325 44.5682C2.78035 44.5682 0 41.9806 0 37.7596C0 33.1716 2.98682 30.6206 6.66183 30.6206C9.84134 30.6206 11.2132 31.9282 11.649 33.0156C11.6765 32.2264 11.7087 31.2721 11.7408 30.9464H13.2044C13.2044 31.4373 13.1401 33.5891 13.1401 34.8967L13.108 43.6414ZM1.615 37.7045C1.615 40.9483 3.57867 43.2882 6.57007 43.2882C10.4607 43.2882 11.6444 41.0263 11.6444 37.4843C11.6444 33.9424 10.4011 31.9007 6.66183 31.9007C3.07858 31.9007 1.615 34.5984 1.615 37.7045Z" fill="white"/>
<path d="M28.6248 41.9806C28.6154 42.848 28.6876 43.7144 28.8404 44.5683H27.3447C27.1592 43.8848 27.0651 43.1797 27.0649 42.4715C26.5602 43.4809 25.1838 44.9215 21.9722 44.9215C18.3568 44.9215 16.8015 42.8753 16.8015 40.8336C16.8015 37.8376 19.4487 36.475 24.1194 36.475H27.0786V35.0986C27.0786 33.7222 26.6198 31.9099 23.0595 31.9099C19.9167 31.9099 19.4487 33.3551 19.1046 34.47H17.5493C17.7374 32.9743 18.7927 30.6573 23.0916 30.6573C26.6428 30.6573 28.6386 31.9649 28.6386 34.9609L28.6248 41.9806ZM27.097 37.622H24.0459C20.5866 37.622 18.4394 38.4111 18.4394 40.7556C18.4394 42.4715 19.8387 43.6415 22.018 43.6415C26.473 43.6415 27.097 41.0538 27.097 38.1358V37.622Z" fill="white"/>
<path d="M33.7634 24.4911H35.3187V27.1338H33.7634V24.4911ZM33.7634 30.9465H35.3187V44.5683H33.7634V30.9465Z" fill="white"/>
<path d="M40.4298 34.3692C40.4298 33.1717 40.4298 32.0293 40.3976 30.9373H41.9255C41.9906 31.7982 42.0105 32.662 41.9851 33.525C42.6733 32.1486 43.9488 30.6116 47.1558 30.6116C49.9087 30.6116 52.3908 31.988 52.3908 35.7318V44.5592H50.8309V35.9612C50.8309 33.5342 49.6792 31.9559 46.9723 31.9559C43.2652 31.9559 41.9851 34.6536 41.9851 37.6221V44.5684H40.4298V34.3692Z" fill="white"/>
<path d="M63.2643 30.9465H66.1594V26.698H67.7147V30.9465H71.4218V32.2266H67.7147V41.0815C67.7147 42.6093 68.0909 43.481 69.5866 43.481C70.1312 43.4925 70.6751 43.437 71.2062 43.3159V44.5179C70.5788 44.6986 69.9272 44.7806 69.2746 44.7611C67.2788 44.7611 66.1594 43.8894 66.1594 41.71V32.2266H63.2643V30.9465Z" fill="white"/>
<path d="M74.3216 34.6535C74.3216 32.3595 74.2895 31.3822 74.2895 30.9464H75.8127C75.8448 31.3822 75.877 32.254 75.877 33.9974C76.7946 31.9557 78.772 30.7307 81.2954 30.6206V32.075C78.0563 32.2631 75.877 34.2268 75.877 37.466V44.5499H74.3216V34.6535Z" fill="white"/>
<path d="M94.5639 41.9806C94.5554 42.8482 94.6291 43.7146 94.7842 44.5683H93.2885C93.1004 43.8853 93.0063 43.1799 93.0086 42.4715C92.481 43.4809 91.1092 44.8986 87.9021 44.8986C84.2868 44.8986 82.7314 42.8523 82.7314 40.8107C82.7314 37.8147 85.3787 36.452 90.0723 36.452H93.0316V35.0756C93.0316 33.6992 92.5727 31.8869 89.0124 31.8869C85.8696 31.8869 85.4017 33.3322 85.0576 34.4471H83.5022C83.6857 32.9514 84.7456 30.6344 89.0446 30.6344C92.5957 30.6344 94.5869 31.942 94.5869 34.938L94.5639 41.9806ZM93.0407 37.622H89.9851C86.5303 37.622 84.3831 38.4111 84.3831 40.7556C84.3831 42.4715 85.7825 43.6415 87.9618 43.6415C92.4168 43.6415 93.0407 41.0538 93.0407 38.1358V37.622Z" fill="white"/>
<path d="M99.7071 34.3692C99.7071 33.1717 99.7071 32.0293 99.675 30.9373H101.203C101.268 31.7982 101.288 32.662 101.262 33.525C101.951 32.1486 103.226 30.6116 106.433 30.6116C109.186 30.6116 111.668 31.988 111.668 35.7318V44.5592H110.108V35.9612C110.108 33.5342 108.957 31.9559 106.245 31.9559C102.543 31.9559 101.262 34.6536 101.262 37.6221V44.5684H99.7071V34.3692Z" fill="white"/>
<path d="M127.272 42.2559C126.524 43.8066 125.061 44.8986 121.945 44.8986C118.367 44.8986 115.522 42.3109 115.522 37.9202C115.522 33.2083 118.697 30.6206 122.344 30.6206C125.519 30.6206 126.891 31.997 127.263 32.9926C127.231 32.3916 127.295 31.6529 127.327 30.9464H128.823C128.791 32.5522 128.791 33.479 128.791 34.7361V50.0188H127.263L127.272 42.2559ZM117.178 37.8422C117.178 40.8106 118.798 43.6185 122.225 43.6185C126.088 43.6185 127.336 41.3566 127.336 37.6541C127.336 34.057 126.276 31.9053 122.354 31.9053C119.018 31.9282 117.183 34.4057 117.183 37.8422H117.178Z" fill="white"/>
<path d="M145.555 40.5905C145.555 41.9256 145.587 44.0544 145.587 44.5683H144.092C144.014 43.7817 143.983 42.9911 144 42.2009C143.344 43.8067 141.756 44.8986 138.985 44.8986C136.742 44.8986 133.879 44.1324 133.879 39.9665V30.9464H135.402V39.6407C135.402 41.6273 136.118 43.5635 139.201 43.5635C142.692 43.5635 144 41.8476 144 37.9477V30.9464H145.555V40.5905Z" fill="white"/>
<path d="M150.666 24.4911H152.222V27.1338H150.666V24.4911ZM150.666 30.9465H152.222V44.5683H150.666V30.9465Z" fill="white"/>
<path d="M157.319 44.5683V24.4911H158.874V44.5683H157.319Z" fill="white"/>
<path d="M163.999 24.4911H165.577V27.1338H164.022L163.999 24.4911ZM163.999 30.9465H165.577V44.5683H164.022L163.999 30.9465Z" fill="white"/>
<path d="M168.546 30.9465H171.441V26.698H173.001V30.9465H176.708V32.2266H173.001V41.0815C173.001 42.6093 173.373 43.481 174.868 43.481C175.413 43.4927 175.957 43.4372 176.488 43.3159V44.5179C175.861 44.6992 175.209 44.7812 174.556 44.7611C172.565 44.7611 171.441 43.8894 171.441 41.71V32.2266H168.546V30.9465Z" fill="white"/>
<path d="M180.411 30.9464C183.558 38.7461 184.93 41.9577 185.457 43.4259H185.49C186.114 41.765 187.357 38.6038 190.38 30.9464H192L186.146 45.3804C184.494 49.4132 183.37 50.3125 180.567 50.3125C180.088 50.3142 179.61 50.2866 179.135 50.2299V48.8535C179.601 48.9094 180.07 48.937 180.539 48.9361C182.778 48.9361 183.498 47.9818 184.668 45.1739L178.704 30.951L180.411 30.9464Z" fill="white"/>
</svg>
