<svg width="117" height="205" viewBox="0 0 117 205" fill="none" xmlns="http://www.w3.org/2000/svg">
<path opacity="0.1" d="M361 -27.0524C361 -64.1971 354.473 -97.8723 341.42 -128.078C328.366 -158.283 309.398 -183.591 284.515 -204L225.775 -140.323C259.632 -111.342 276.561 -75.4221 276.561 -32.5629C276.561 -6.03094 270.748 17.6437 259.122 38.4611C247.497 59.2784 231.282 75.5037 210.478 87.137C189.674 98.7702 166.015 104.587 139.5 104.587C112.985 104.587 89.326 98.7702 68.5221 87.137C47.7182 75.5037 31.5034 59.2784 19.8778 38.4611C8.25208 17.6437 2.43922 -6.03094 2.43922 -32.5629C2.43922 -75.4221 19.1639 -111.342 52.6133 -140.323L-6.12708 -204C-30.6022 -183.591 -49.3665 -158.385 -62.4199 -128.384C-75.4733 -98.3825 -82 -64.8094 -82 -27.6647C-82 16.4192 -72.5159 56.115 -53.5477 91.4229C-34.5794 126.731 -8.26865 154.487 25.3847 174.692C59.038 194.897 97.0764 205 139.5 205C181.924 205 219.962 194.897 253.615 174.692C287.269 154.487 313.579 126.731 332.548 91.4229C351.516 56.115 361 16.6232 361 -27.0524Z" fill="white"/>
</svg>
