<svg width="377" height="377" viewBox="0 0 377 377" fill="none" xmlns="http://www.w3.org/2000/svg">
<path opacity="0.1" d="M569 72.4955C569 19.9117 559.762 -27.7605 541.287 -70.521C522.812 -113.281 495.965 -149.108 460.747 -178L377.609 -87.8563C425.529 -46.8293 449.489 4.02097 449.489 64.6946C449.489 102.254 441.262 135.769 424.807 165.24C408.353 194.71 385.403 217.679 355.959 234.147C326.514 250.616 293.028 258.85 255.5 258.85C217.972 258.85 184.486 250.616 155.041 234.147C125.597 217.679 102.647 194.71 86.1927 165.24C69.7383 135.769 61.511 102.254 61.511 64.6946C61.511 4.02097 85.1823 -46.8293 132.525 -87.8563L49.3867 -178C14.7459 -149.108 -11.8122 -113.426 -30.2873 -70.9543C-48.7624 -28.4828 -58 19.0449 -58 71.6288C-58 134.036 -44.5767 190.231 -17.73 240.215C9.11671 290.198 46.3557 329.492 93.9869 358.095C141.618 386.698 195.456 401 255.5 401C315.544 401 369.382 386.698 417.013 358.095C464.644 329.492 501.883 290.198 528.73 240.215C555.577 190.231 569 134.325 569 72.4955Z" fill="white"/>
</svg>
