<svg xmlns="http://www.w3.org/2000/svg" width="21" height="24" viewBox="0 0 21 24">
    <defs>
        <filter id="lqw31ckywa">
            <feColorMatrix in="SourceGraphic" values="0 0 0 0 1.000000 0 0 0 0 1.000000 0 0 0 0 1.000000 0 0 0 1.000000 0"/>
        </filter>
    </defs>
    <g fill="none" fill-rule="evenodd" filter="url(#lqw31ckywa)" transform="translate(-3 -2)">
        <path fill="#000" fill-rule="nonzero" d="M23.744 21.598c-3.004-2.512-4.293-5.764-4.308-10.871-.005-1.55-.668-3.066-1.818-4.16-.492-.47-1.052-.845-1.654-1.118v-1C15.964 3.1 14.822 2 13.42 2c-1.403 0-2.544 1.099-2.544 2.45v1.059c-1.96.937-3.313 2.886-3.313 5.123 0 2.632-.338 4.764-1.033 6.518-.684 1.724-1.755 3.179-3.274 4.447-.233.195-.318.513-.21.792.109.279.389.466.698.466h5.948C9.832 24.612 11.36 26 13.22 26s3.388-1.388 3.528-3.145h6.508c.31 0 .59-.187.697-.465.108-.279.024-.597-.209-.792zM12.34 4.45c0-.573.484-1.04 1.08-1.04.595 0 1.08.467 1.08 1.04v.552c-.345-.058-.696-.086-1.051-.084-.38.003-.75.041-1.11.11V4.45zm.88 20.142c-1.052 0-1.923-.758-2.057-1.736h4.115c-.135.978-1.006 1.736-2.058 1.736zm-7.718-3.146c1.045-1.125 1.834-2.377 2.395-3.792.76-1.917 1.13-4.214 1.13-7.021 0-2.354 1.99-4.286 4.434-4.306 1.166-.01 2.276.432 3.128 1.242.875.834 1.38 1.986 1.383 3.163.008 2.776.382 5.05 1.143 6.954.561 1.401 1.347 2.643 2.384 3.761H5.502z"/>
    </g>
</svg>
