<?xml version="1.0" encoding="UTF-8"?>
<svg width="18px" height="21px" viewBox="0 0 18 21" version="1.1" xmlns="http://www.w3.org/2000/svg" xmlns:xlink="http://www.w3.org/1999/xlink">
    <title>bell_disable copy</title>
    <defs>
        <filter id="filter-1">
            <feColorMatrix in="SourceGraphic" type="matrix" values="0 0 0 0 1.000000 0 0 0 0 1.000000 0 0 0 0 1.000000 0 0 0 1.000000 0"></feColorMatrix>
        </filter>
    </defs>
    <g id="클레스-페이지_리뉴얼" stroke="none" stroke-width="1" fill="none" fill-rule="evenodd">
        <g id="bell_disable-copy" transform="translate(-120.000000, -990.000000)" filter="url(#filter-1)">
            <g transform="translate(120.000000, 990.000000)">
                <path d="M17.7807676,17.1483471 C17.7806046,17.1481869 17.7806046,17.1481869 17.7804416,17.1480266 C15.2056001,14.9498287 14.101165,12.1048287 14.0877977,7.63585386 C14.0837223,6.28056549 13.5157738,4.95363583 12.5296885,3.99536891 C12.1076395,3.58520953 11.6283717,3.25692182 11.1116102,3.01755535 L11.1116102,2.14292255 C11.1116102,0.961311045 10.1335128,0 8.93110499,0 C7.72886025,0 6.75076281,0.961311045 6.75076281,2.14292255 L6.75076281,3.07026727 C5.07088043,3.88994515 3.91085691,5.59547115 3.91085691,7.55270044 C3.91085691,9.85616191 3.62117703,11.7217462 3.0253527,13.2559986 C2.43947232,14.7647763 1.52169091,16.0377124 0.219680192,17.1473857 C0.0194962494,17.3178582 -0.0527199552,17.5964782 0.0398732689,17.8403308 C0.132629499,18.0841834 0.372752451,18.2479267 0.637490824,18.2479267 L5.73582369,18.2480869 C5.85596664,19.7852233 7.16596519,21 8.76010096,21 C10.3542368,21 11.6642353,19.7853835 11.7843782,18.2484073 L17.362631,18.2485675 C17.6273693,18.2485675 17.8674922,18.0848242 17.9600855,17.8409717 C18.0526787,17.5972793 17.9806255,17.3189798 17.7807676,17.1483471 L17.7807676,17.1483471 Z" id="Path" fill="#000000" fill-rule="nonzero"></path>
                <path d="M8.00566181,2.14292255 C8.00566181,1.6414386 8.42086418,1.23336205 8.93110499,1.23336205 C9.44150884,1.23336205 9.85671122,1.6414386 9.85671122,2.14292255 L9.85671122,2.62630177 C9.56165184,2.57535227 9.26072384,2.55019797 8.95620951,2.55244105 C8.63131815,2.55516476 8.31359951,2.58849021 8.00566181,2.64905282 L8.00566181,2.14292255 Z" id="Path" fill="#000000" fill-rule="nonzero"></path>
                <path d="M8.76010096,19.7667982 C7.85845817,19.7667982 7.11184375,19.1041344 6.99675431,18.2482471 L10.5236107,18.2484073 C10.4085212,19.1041344 9.66174379,19.7667982 8.76010096,19.7667982 Z" id="Path" fill="#000000" fill-rule="nonzero"></path>
                <path d="M2.1444129,17.0147248 C3.04002414,16.0300219 3.71670456,14.9342875 4.19760245,13.6959587 C4.84901534,12.0186311 5.1655929,10.0093308 5.1655929,7.55286065 C5.1655929,5.49293131 6.87090577,3.8031067 8.96680555,3.78564289 C9.96642113,3.77570937 10.9177839,4.16343811 11.6474446,4.87240504 C12.3976454,5.60155944 12.8298014,6.61013495 12.8328987,7.63953885 C12.8402345,10.0689321 13.1608874,12.0591664 13.8132784,13.7239969 C14.2936872,14.9503094 14.9674334,16.0370715 15.8565239,17.0153657 L2.1444129,17.0147248 Z" id="Path" fill="#000000" fill-rule="nonzero"></path>
            </g>
        </g>
    </g>
</svg>