<svg xmlns="http://www.w3.org/2000/svg" width="14" height="14" viewBox="0 0 14 14">
    <g fill="none" fill-rule="evenodd">
        <g fill="#626262" fill-rule="nonzero">
            <g>
                <path d="M13.58 9.518c.295-.366.437-.758.418-1.163-.018-.445-.222-.793-.391-1.007.196-.474.271-1.22-.383-1.8-.478-.425-1.292-.615-2.418-.562-.792.035-1.455.178-1.482.184h-.003c-.15.027-.31.059-.473.094-.012-.187.022-.653.377-1.701.422-1.247.397-2.202-.078-2.84C8.647.053 7.849 0 7.614 0c-.226 0-.434.09-.582.258-.334.377-.295 1.074-.253 1.396-.397 1.037-1.512 3.578-2.454 4.283-.018.012-.033.027-.048.041-.277.284-.464.592-.59.861-.178-.094-.38-.146-.597-.146H1.253C.56 6.693 0 7.24 0 7.91v4.758c0 .673.563 1.218 1.253 1.218H3.09c.268 0 .518-.082.723-.223l.708.082c.108.015 2.036.252 4.014.214.359.026.696.041 1.01.041.538 0 1.008-.041 1.4-.123.921-.19 1.55-.57 1.87-1.13.244-.427.244-.852.205-1.121.599-.527.704-1.11.683-1.52-.012-.237-.066-.439-.123-.588zM1.253 13.095c-.244 0-.44-.193-.44-.427v-4.76c0-.238.199-.428.44-.428H3.09c.244 0 .44.193.44.428v4.757c0 .237-.199.427-.44.427H1.253v.003zm11.556-3.92c-.127.13-.15.325-.054.477 0 .003.123.208.138.49.021.383-.168.722-.566 1.012-.142.106-.199.287-.139.451 0 .003.13.39-.08.756-.203.35-.651.603-1.332.743-.545.114-1.286.135-2.196.065h-.042c-1.936.04-3.894-.205-3.915-.208H4.62l-.304-.035c.018-.082.027-.17.027-.258v-4.76c0-.126-.021-.25-.057-.363.054-.197.204-.633.56-1.005C6.198 5.498 7.52 1.982 7.577 1.83c.025-.062.03-.129.019-.196-.052-.328-.034-.73.039-.85.16.004.59.047.849.396.307.413.295 1.15-.036 2.128-.506 1.49-.548 2.275-.148 2.62.2.173.464.182.657.115.184-.041.358-.076.524-.103l.039-.009c.925-.196 2.581-.316 3.156.194.488.433.142 1.007.103 1.068-.112.164-.079.378.072.51.003.003.32.292.334.682.012.26-.114.527-.376.79z" transform="translate(-291 -1619) translate(291 1619)"/>
            </g>
        </g>
    </g>
</svg>
