<svg xmlns="http://www.w3.org/2000/svg" width="18" height="17" viewBox="0 0 18 17">
    <path fill="#EEE" fill-rule="evenodd" d="M2.816 6.194l-1.69-1.847 1.866-2.232 2.19 1.202a6.734 6.734 0 0 1 1.92-.898L7.518 0h2.964l.416 2.419c.694.2 1.341.505 1.92.898l2.19-1.202 1.865 2.232-1.689 1.847c.261.625.424 1.3.47 2.004l2.346.94-.667 2.797-2.521-.15a6.528 6.528 0 0 1-1.33 1.613l.717 2.343L11.536 17l-1.475-2.006a6.928 6.928 0 0 1-2.122 0L6.464 17l-2.663-1.259.718-2.343a6.528 6.528 0 0 1-1.33-1.614l-2.522.151L0 9.137l2.346-.94a6.26 6.26 0 0 1 .47-2.003zM9 11.486c1.637 0 2.964-1.286 2.964-2.872 0-1.586-1.327-2.871-2.964-2.871S6.036 7.028 6.036 8.614 7.363 11.486 9 11.486z"/>
</svg>
