<svg xmlns="http://www.w3.org/2000/svg" width="14" height="14" viewBox="0 0 14 14">
    <g fill="none" fill-rule="evenodd">
        <g fill="#626262" fill-rule="nonzero">
            <g>
                <path d="M7.396 0c.228 0 1.004.051 1.49.702.462.62.485 1.548.075 2.76-.345 1.017-.377 1.47-.365 1.652.158-.035.313-.066.459-.091.03-.006.673-.146 1.442-.18 1.094-.05 1.884.134 2.35.546.634.563.561 1.289.371 1.75.164.207.363.545.38.978.018.392-.12.773-.406 1.129.055.145.108.341.12.571.02.399-.082.965-.664 1.477.038.261.038.674-.2 1.089-.31.543-.92.913-1.816 1.098-.38.08-.837.119-1.36.119-.305 0-.633-.014-.98-.04-1.923.037-3.795-.193-3.9-.207l-.688-.08c-.199.136-.442.216-.702.216H1.217C.547 13.49 0 12.96 0 12.306V7.684c0-.65.544-1.183 1.217-1.183h1.785c.21 0 .406.052.579.143.123-.262.304-.56.573-.837.015-.014.03-.028.047-.04.916-.685 1.998-3.153 2.385-4.16-.041-.313-.08-.99.245-1.357.144-.162.346-.25.565-.25z" transform="translate(-291 -1283) translate(291 1283)"/>
            </g>
        </g>
    </g>
</svg>
