<svg xmlns="http://www.w3.org/2000/svg" width="21" height="16" viewBox="0 0 21 16">
    <g fill="#f2f2f2">
        <path d="M19.526 2.515c-.403-.422-.96-.672-1.593-.672h-3.187v-.038c0-.48-.192-.941-.519-1.248C13.901.23 13.46.038 12.98.038H7.22c-.499 0-.94.192-1.267.519-.326.326-.518.768-.518 1.248v.038H2.266c-.634 0-1.19.25-1.594.672C.269 2.918 0 3.495 0 4.11v9.561c0 .634.25 1.19.672 1.594.403.403.98.672 1.594.672h15.667c.633 0 1.19-.25 1.593-.672.404-.403.672-.98.672-1.594V4.11c0-.634-.25-1.19-.672-1.594zM19.2 13.67h-.02c0 .346-.134.653-.364.884-.23.23-.538.364-.883.364H2.266c-.346 0-.653-.134-.884-.364-.23-.23-.364-.538-.364-.884V4.11c0-.346.134-.653.364-.883.23-.23.538-.365.884-.365H5.97c.288 0 .519-.23.519-.519v-.556c0-.212.076-.404.21-.538.135-.134.327-.211.538-.211h5.741c.211 0 .403.077.538.211.134.134.211.326.211.538v.556c0 .288.23.519.518.519h3.706c.346 0 .653.134.883.365.23.23.365.537.365.883v9.561z"/>
        <path d="M10.1 4.166c-1.306 0-2.497.538-3.342 1.383-.864.864-1.382 2.035-1.382 3.34 0 1.306.538 2.497 1.382 3.341.864.864 2.036 1.383 3.341 1.383 1.306 0 2.496-.538 3.341-1.383.864-.864 1.382-2.035 1.382-3.34 0-1.306-.537-2.496-1.382-3.341-.845-.845-2.035-1.383-3.34-1.383zm2.61 7.354c-.672.653-1.593 1.075-2.61 1.075-1.018 0-1.94-.422-2.612-1.075-.672-.672-1.075-1.594-1.075-2.611 0-1.018.422-1.94 1.075-2.611.672-.672 1.594-1.076 2.611-1.076 1.018 0 1.94.423 2.611 1.076.672.672 1.076 1.593 1.076 2.61.019 1.018-.404 1.94-1.076 2.612z"/>
    </g>
</svg>
