<svg xmlns="http://www.w3.org/2000/svg" width="21" height="21" viewBox="0 0 21 21">
    <path fill="#f2f2f2" fill-rule="evenodd" d="M15.75 10.442c0-2.088-1.167-3.829-2.917-4.64v2.552l2.917 2.9v-.812zm2.917 0c0 1.044-.234 2.088-.584 3.017l1.75 1.74C20.65 13.807 21 12.066 21 10.326c0-4.989-3.5-9.166-8.167-10.21v2.436c3.384 1.16 5.834 4.177 5.834 7.89zM1.517 0L0 1.508l5.483 5.453H0v6.962h4.667l5.833 5.8V11.95l5.017 4.99c-.817.58-1.634 1.043-2.684 1.391v2.437c1.634-.348 3.034-1.044 4.317-2.088L19.483 21 21 19.492 10.5 9.05 1.517 0zM10.5 1.16L8.05 3.597l2.45 2.436V1.16z"/>
</svg>
