<svg xmlns="http://www.w3.org/2000/svg" width="34" height="34" viewBox="0 0 34 34">
    <g fill="none" fill-rule="evenodd">
        <g>
            <g transform="translate(-534 -643) translate(534 643)">
                <rect width="34" height="34" fill="#181817" rx="17"/>
                <path fill="#f2f2f2" fill-rule="nonzero" d="M11.361 16.087c.115.114.298.113.41-.003.114-.117.115-.305.003-.423l-3.068-3.165 1.006-1.026.83.857 3.788 3.907-5.997 6.185c-.146.15-.228.355-.228.568 0 .213.082.417.228.568l2.734 2.819c.304.313.797.313 1.101 0l5.997-6.185 4.323 4.459c.013.012.026.024.04.034l.013.008c.012.008.025.015.039.021l.006.003c.013.005.026.01.039.013l3.12.793c.1.025.204-.005.276-.08.073-.074.102-.182.078-.285l-.77-3.218c-.002-.013-.007-.027-.012-.04l-.003-.006-.02-.04-.008-.013c-.01-.015-.021-.029-.033-.042l-4.324-4.459 5.961-6.147c.146-.15.228-.355.228-.568 0-.213-.082-.418-.228-.568l-2.733-2.82c-.304-.312-.797-.312-1.101 0l-1.567 1.617-4.394 4.532-4.82-4.973c-.115-.117-.3-.117-.414 0l-.143.148-.395-.415c-.274-.29-.65-.452-1.042-.45-.592 0-1.125.367-1.352.93-.226.564-.101 1.213.317 1.644l.405.418-1.564 1.596c-.056.056-.087.133-.087.213 0 .08.03.157.086.214l3.275 3.379zm13.272 5.922l-1.938 2-11.533-11.895 1.938-2L24.633 22.01zm-12.878 3.939c-.076.078-.2.078-.275 0l-2.733-2.819c-.037-.038-.057-.089-.057-.142 0-.053.02-.104.057-.142l4.087-4.215 1.304 1.345c.074.077.182.108.283.08.102-.028.18-.11.208-.214.027-.105-.003-.216-.078-.292l-1.304-1.345 1.497-1.544 3.008 3.103-5.997 6.185zm11.513-1.678l1.619-1.67.529 2.216-2.148-.546zM18.74 12.536l1.305 1.346c.074.077.182.107.283.08.101-.028.18-.11.207-.214.027-.105-.002-.216-.077-.292l-1.305-1.346 2.541-2.62.772.796c.074.078.182.109.284.081.102-.027.181-.11.208-.214.027-.105-.003-.217-.079-.293l-.772-.796 1.36-1.403c.077-.078.2-.078.276 0l2.733 2.819c.076.078.076.205 0 .284l-5.96 6.148-3.009-3.103 1.233-1.273zM12.687 9.69l-1.938 1.999-.62-.64 1.939-1.998.62.639zM9.66 9.84c-.25-.259-.326-.648-.19-.987.136-.338.456-.56.811-.56h.001c.235 0 .46.098.625.272l.4.418-1.185 1.221-.055.056-.407-.42z" opacity=".5"/>
            </g>
        </g>
    </g>
</svg>
