<svg xmlns="http://www.w3.org/2000/svg" width="38" height="38" viewBox="0 0 38 38">
    <defs>
        <filter id="4ohfu5t6ia">
            <feColorMatrix in="SourceGraphic" values="0 0 0 0 0.992157 0 0 0 0 0.666667 0 0 0 0 0.219608 0 0 0 1.000000 0"/>
        </filter>
    </defs>
    <g fill="none" fill-rule="evenodd">
        <g filter="url(#4ohfu5t6ia)" transform="translate(-1113 -999)">
            <g>
                <path fill="#000" fill-rule="nonzero" d="M6.545 17.718c.223.218.579.216.799-.006.22-.221.222-.58.005-.804L1.375 10.89l1.958-1.95L4.95 10.57l7.376 7.427L.649 29.756c-.284.286-.444.675-.444 1.08s.16.793.444 1.08l5.322 5.358c.593.596 1.552.596 2.144 0l11.677-11.758 8.418 8.477c.024.024.05.046.078.065l.024.015c.024.016.05.03.076.04l.012.007c.025.01.05.018.076.024l6.075 1.507c.193.048.397-.009.538-.15.14-.142.198-.348.15-.543l-1.497-6.117c-.006-.026-.014-.052-.024-.077l-.006-.012c-.011-.027-.025-.052-.04-.077l-.016-.024c-.019-.028-.04-.054-.064-.079l-8.417-8.477L36.78 8.41c.284-.287.444-.675.444-1.08s-.16-.794-.444-1.08L31.459.889c-.593-.595-1.552-.595-2.145 0l-3.05 3.073-8.555 8.615-9.387-9.453c-.222-.223-.582-.223-.804 0l-.278.28-.77-.788c-.534-.55-1.265-.858-2.028-.857H4.44c-1.152 0-2.19.7-2.63 1.77-.441 1.072-.198 2.305.616 3.125l.789.794-3.046 3.034c-.108.107-.169.253-.169.406 0 .152.06.298.167.406l6.378 6.424zm25.841 11.26l-3.774 3.8L6.156 10.165l3.775-3.8 22.455 22.613zM7.312 36.465c-.149.149-.389.149-.537 0l-5.321-5.359c-.072-.072-.111-.169-.111-.27s.04-.198.11-.27l7.959-8.014 2.54 2.558c.143.147.353.205.55.152.198-.053.352-.208.405-.407.052-.199-.006-.41-.151-.555l-2.54-2.558 2.914-2.935 5.858 5.9L7.312 36.464zm22.415-3.19L32.88 30.1l1.03 4.213-4.183-1.038zm-8.813-22.307l2.54 2.558c.144.147.354.205.551.152.198-.053.352-.208.404-.407.053-.199-.005-.41-.15-.555l-2.54-2.557 4.947-4.983 1.503 1.514c.143.148.354.207.552.155.198-.053.353-.209.405-.408.053-.2-.006-.413-.153-.557L27.47 4.367 30.118 1.7c.149-.15.388-.15.537 0l5.321 5.359c.148.149.148.39 0 .54L24.371 19.286l-5.858-5.9 2.401-2.418zM9.127 5.554L5.352 9.355 4.146 8.14l3.774-3.8 1.207 1.214zm-5.896.29c-.49-.492-.635-1.233-.37-1.876.264-.643.887-1.063 1.579-1.063h.001c.458-.001.898.184 1.218.514l.777.796L4.13 6.536l-.107.107-.792-.798z" transform="translate(1113 999)"/>
            </g>
        </g>
    </g>
</svg>
