<svg xmlns="http://www.w3.org/2000/svg" width="28" height="19" viewBox="0 0 28 19">
    <g fill="none" fill-rule="evenodd" opacity=".5">
        <g fill="#f2f2f2" fill-rule="nonzero">
            <g>
                <path d="M22.453 19c1.56 0 2.875-.497 3.944-1.491C27.466 16.515 28 15.308 28 13.888c0-1.193-.419-2.201-1.257-3.025-.837-.823-1.892-1.235-3.163-1.235-2.369 0-3.611.965-3.727 2.897-.809-1.08-1.213-2.386-1.213-3.92 0-3.464 2.398-5.822 7.193-7.071.694-.17 1.04-.455 1.04-.852 0-.455-.317-.682-.953-.682-1.502 0-3.467.653-5.893 1.96C16.676 3.777 15 6.816 15 11.076c0 2.33.708 4.232 2.123 5.709C18.54 18.262 20.316 19 22.453 19zm-14.95 0c1.513 0 2.807-.497 3.883-1.491C12.462 16.515 13 15.308 13 13.888c0-1.193-.422-2.201-1.265-3.025-.844-.823-1.905-1.235-3.185-1.235-2.326 0-3.548.965-3.664 2.897-.814-1.08-1.222-2.358-1.222-3.834 0-3.522 2.385-5.908 7.155-7.157.698-.17 1.047-.455 1.047-.852 0-.455-.32-.682-.96-.682C9.452 0 7.503.653 5.06 1.96 1.687 3.777 0 6.788 0 10.99c0 2.329.698 4.246 2.094 5.751S5.294 19 7.504 19z" transform="translate(-505 -3250) translate(505 3250)"/>
            </g>
        </g>
    </g>
</svg>
