<svg xmlns="http://www.w3.org/2000/svg" width="16" height="14" viewBox="0 0 16 14">
    <path fill="#f2f2f2" fill-rule="evenodd"
          d="M11.6 0C10.24 0 8.88.612 8 1.607 7.12.612 5.76 0 4.4 0 1.92 0 0 1.836 0 4.208c0 2.907 2.72 5.278 6.88 8.797L8 14l1.12-.995C13.2 9.41 16 7.038 16 4.208 16 1.836 14.08 0 11.6 0zM8.088 12.732H8l-.088-.088C3.712 8.85 1 6.379 1 3.82 1 2.056 2.313.732 4.063.732c1.312 0 2.625.883 3.15 2.118h1.662c.438-1.235 1.75-2.118 3.063-2.118C13.688.732 15 2.056 15 3.82c0 2.56-2.713 5.03-6.912 8.912z"/>
</svg>
