<svg xmlns="http://www.w3.org/2000/svg" width="27" height="27" viewBox="0 0 27 27">
    <path fill="#f2f2f2" fill-rule="evenodd" d="M18.942 5.062c1.242-.002 2.431.497 3.3 1.384 1.839 1.874 1.839 4.876 0 6.75L13.5 22.047l-8.741-8.85c-1.84-1.875-1.84-4.877 0-6.75.869-.883 2.056-1.38 3.295-1.38 1.238 0 2.425.497 3.294 1.38L13.5 8.64l2.135-2.185c.868-.893 2.062-1.396 3.307-1.393zm0-1.687c-1.695 0-3.318.68-4.505 1.89l-.937.945-.937-.945c-1.188-1.208-2.81-1.888-4.505-1.888-1.694 0-3.318.68-4.506 1.888-2.485 2.536-2.485 6.593 0 9.13L13.5 24.468l9.948-10.075c2.485-2.536 2.485-6.593 0-9.129-1.187-1.21-2.811-1.89-4.506-1.89z"/>
</svg>
