<svg xmlns="http://www.w3.org/2000/svg" width="46" height="42" viewBox="0 0 46 42">
    <defs>
        <filter id="0zhz3nuzsa">
            <feColorMatrix in="SourceGraphic" values="0 0 0 0 1.000000 0 0 0 0 1.000000 0 0 0 0 1.000000 0 0 0 1.000000 0"/>
        </filter>
    </defs>
    <g fill="none" fill-rule="evenodd" opacity=".5">
        <g filter="url(#0zhz3nuzsa)" transform="translate(-559 -325)">
            <g fill="#000" fill-rule="nonzero">
                <path d="M22.53 29C21.152 29 20 30.14 20 31.5s1.153 2.5 2.53 2.5c1.324 0 2.528-1.14 2.468-2.44.06-1.43-1.083-2.56-2.469-2.56z" transform="translate(559 325)"/>
                <path d="M44.88 37.882c1.485-2.56 1.495-5.61.02-8.16L30.09 4.108C28.626 1.53 25.978 0 23.01 0c-2.97 0-5.617 1.54-7.083 4.099L1.1 29.74c-1.475 2.578-1.465 5.648.029 8.207C2.603 40.48 5.24 42 8.19 42H37.77c2.96 0 5.617-1.54 7.11-4.118zm-3.214-1.851c-.823 1.417-2.28 2.257-3.906 2.257H8.182c-1.608 0-3.054-.821-3.858-2.21-.813-1.407-.823-3.088-.01-4.505L19.141 5.941c.804-1.408 2.241-2.239 3.868-2.239 1.617 0 3.064.84 3.867 2.248l14.818 25.633c.794 1.379.785 3.04-.028 4.448z" transform="translate(559 325)"/>
                <path d="M21.91 13.067c-1.177.32-1.91 1.338-1.91 2.573.06.745.109 1.5.168 2.244.169 2.838.337 5.619.505 8.457.06.961.842 1.659 1.852 1.659 1.01 0 1.802-.745 1.851-1.716 0-.584 0-1.122.06-1.716.109-1.82.227-3.639.336-5.458.06-1.179.169-2.357.228-3.536 0-.424-.06-.801-.228-1.178-.505-1.056-1.683-1.593-2.861-1.33z" transform="translate(559 325)"/>
            </g>
        </g>
    </g>
</svg>
