<svg xmlns="http://www.w3.org/2000/svg" width="19" height="18" viewBox="0 0 19 18">
    <g fill="#f2f2f2" fill-rule="evenodd" stroke="#f2f2f2" stroke-width=".5" transform="translate(1 1.19)">
        <circle cx="5.85" cy="15.21" r="1.17"/>
        <circle cx="14.04" cy="15.21" r="1.17"/>
        <path fill-rule="nonzero" d="M16.38 2.925H3.405L2.925.468C2.869.191 2.622-.005 2.34 0H0v1.17h1.86l2.235 11.232c.056.277.303.474.585.468h10.53V11.7H5.16l-.48-2.34h10.53c.279.007.524-.184.585-.456l1.17-5.265c.04-.176-.004-.36-.118-.5-.115-.14-.287-.218-.467-.214zM14.742 8.19H4.458l-.82-4.095h12.01l-.906 4.095z"/>
    </g>
</svg>
