<svg xmlns="http://www.w3.org/2000/svg" width="24" height="24" viewBox="0 0 24 24">
    <g fill="none" fill-rule="evenodd">
        <g fill-rule="nonzero">
            <g>
                <path fill="#f2f2f2" d="M23.6 16.974c.02-.074.04-.148.058-.222l.045-.189.029-.13.038-.187.02-.105c.017-.094.032-.19.047-.284l.012-.09c.011-.076.021-.154.03-.232l.01-.084c.01-.1.02-.202.027-.304l.004-.056c.006-.086.01-.174.014-.261l.003-.085c.004-.104.006-.208.006-.313 0-.077-.001-.154-.003-.23l-.002-.07-.006-.163-.004-.074-.01-.163-.006-.066c-.004-.06-.01-.121-.016-.182l-.004-.043c-.08-.772-.252-1.529-.516-2.26l-.01-.024c-.133-.365-.288-.72-.463-1.062-.005-.013-.01-.026-.017-.039-.042-.08-.085-.161-.13-.241v-.001l-.052-.095-.047-.081-.013-.022c-.457-.783-1.02-1.487-1.66-2.098l-.02-.017c-.045-.044-.092-.087-.139-.13l-.11-.1-.075-.065c-.25-.217-.659-.516-1.227-.896-.149-.096-.308-.192-.477-.288-.234-.133-2.505-1.042-3.915-1.136l-.034-.003c-.084-.005-.169-.01-.254-.012l-.065-.003c-.097-.003-.195-.005-.293-.005-.083 0-.165.001-.247.003l-.015.002c-1.543.042-3.04.45-4.379 1.194l.144-.62 1.553-.907c.794-.462 1.353-.932 1.661-1.396.423-.636.266-1.11.135-1.334-.13-.225-.464-.595-1.226-.542-.556.039-1.24.293-2.035.755l-1.584.924-5.687-1.689c-.077-.023-.16-.013-.23.028l-1.324.77c-.088.051-.143.144-.146.246-.002.102.048.197.134.253l3.748 2.432-1.283.746L.81 5.712H.808c-.104 0-.201.056-.253.146l-.459.792c-.042.073-.05.16-.024.24.027.08.087.144.164.176l1.826.768.408.703-.234 1.966c-.01.084.016.168.072.23.056.062.135.098.219.098h.002l.914-.007c.106-.001.202-.058.254-.15l1.362-2.428 1.3-.757.093 1.577c-1.077 1.586-1.646 3.44-1.646 5.366l.003.245.001.023.008.208.005.087.01.141.008.108.01.116.013.123.012.098c.005.045.01.09.017.135l.011.08.022.149.01.058c.01.056.019.112.03.167 0 .008.002.015.003.022.052.275.114.545.189.81l.001.007.048.162c.005.02.01.038.017.057.013.045.028.09.042.134l.028.087.038.11.04.115.03.082.058.151.018.047c.427 1.079 1.05 2.08 1.85 2.949.01.011.021.02.033.03C9.11 22.818 11.607 24 14.375 24c3.318 0 6.246-1.698 7.963-4.27.01-.011.02-.023.028-.036.492-.745.872-1.548 1.136-2.388l.013-.04.054-.183.03-.11zm-.242-2.542c0 .092-.002.183-.005.275l-.003.082-.01.2-.006.084c-.005.082-.012.164-.02.245l-.003.029c-.009.088-.02.175-.03.263l-.014.095-.026.172-.018.108-.032.171-.038.184-.03.137-.037.151-.023.089-.046.17-.001.003c-.216.758-.53 1.475-.926 2.138-.13-.466.125-1.389.276-1.935.087-.31.16-.58.184-.772.053-.45-.224-.689-.447-.88-.253-.218-.492-.423-.479-1.003.015-.678.664-1.708 1.361-2.567l.028.093.013.046c.03.11.059.219.085.33l.02.083.035.16.024.12.033.177c.012.069.024.138.034.207l.017.122.022.175.012.105c.01.09.018.18.024.27l.005.074c.005.074.01.149.012.223l.003.085c.004.097.006.194.006.29zm-3.448-3.48c-.245.247-.877.844-1.537 1.15-.392-.866-1.023-1.8-1.746-2.076l-.027-.009c-.024-.007-2.056-.55-3.096-.55-.176 0-.324.015-.429.052-.499.175-1.015.697-1.67 1.358l-.205.208c-.304-.145-.987-.83-.99-1.666.04-1.255.976-1.588 1.802-1.883l.209-.075c.77-.284 1.758-.973 2.13-2.012h.024c.09 0 .182.001.272.004l.061.002c.078.003.156.007.233.012l.035.002c1.927.13 3.748.885 5.199 2.11l.053.044.117.103c.675.602 1.26 1.304 1.73 2.083-.67-.097-1.127-.136-1.361-.117-.283.024-.511.154-.659.376-.18.27-.197.609-.145.884zm-2.062 6.26c.015.322.029.626-.034.891-.167.668-1.042 2.295-2.115 3.025-.27.184-.494.242-.668.174-.271-.105-.506-.526-.66-1.184-.04-.165-.086-.35-.136-.546-.175-.689-.392-1.546-.36-1.97.01-.134.056-.252.104-.377.168-.433.25-.837-.445-1.381-.31-.243-.603-.32-.879-.32-.248 0-.482.063-.702.121-.31.082-.63.168-1.01.102-.963-.168-.705-2.178-.672-2.407.11-.772.659-1.638 1.635-1.831.84-.167 2.21.376 3.028.7.117.046.225.09.32.126.022.008.043.014.065.017 1.055.147 1.359.567 1.652.974.113.157.23.32.385.458.452.406 1.096 1.37.771 1.85-.33.485-.304 1.04-.28 1.578zM1.847 2.317l.803-.467 5.037 1.497-2.243 1.305-3.597-2.335zM4.695 7.78c-.045.026-.082.064-.108.11l-1.318 2.35-.413.003.207-1.734c.008-.063-.006-.127-.037-.182l-.508-.872c-.032-.055-.08-.098-.14-.122L.77 6.656l.207-.357 2.695.015c.054.001.103-.013.149-.04l1.763-1.026 2.984-1.736 1.693-.988c.706-.411 1.322-.645 1.781-.677.34-.024.57.061.68.252.112.191.072.432-.116.716-.255.383-.763.803-1.47 1.214L9.476 5l-4.78 2.78zm2.381-.708l2.108-1.226-1.201 5.17-.803.468-.254-4.325.15-.087zM6.387 18.54l-.013-.026-.082-.165c-.028-.057-.055-.114-.081-.172l-.07-.156-.089-.209-.032-.078c-.038-.097-.075-.195-.11-.294l-.02-.06c-.037-.105-.072-.211-.105-.318l-.006-.02c-.07-.228-.13-.458-.18-.692l-.006-.025c-.025-.116-.048-.232-.068-.35l-.003-.013c-.02-.117-.038-.234-.053-.352l-.002-.01c-.014-.113-.026-.226-.037-.339l-.005-.06c-.01-.11-.017-.221-.023-.332v-.013c.41-.183.857-.376 1.088-.376.181 0 .512.607.69.934.16.296.312.575.479.77.231.273.586.448.898.603.141.069.346.17.42.236-.022.116-.039.296-.066.594-.041.453-.166 1.823-.389 2.02-.144.047-.398.173-.952.653-.46-.533-.857-1.12-1.183-1.75zm7.988 4.875c-2.507 0-4.777-1.033-6.408-2.695.499-.43.691-.513.742-.529.486-.15.64-.932.785-2.52.022-.24.044-.488.063-.56.11-.43-.342-.653-.74-.85-.262-.128-.559-.275-.712-.455-.127-.15-.272-.415-.412-.672-.331-.61-.674-1.24-1.203-1.24-.297 0-.68.145-1.095.325.034-1.458.416-2.868 1.117-4.132l.111 1.906c.006.102.065.193.154.241.043.023.091.035.139.035.05 0 .101-.013.147-.04l1.324-.77c.07-.04.12-.108.138-.187L9.55 6.854c1.251-.799 2.673-1.27 4.152-1.38-.344.687-1.053 1.205-1.685 1.438l-.202.073c-.853.304-2.142.763-2.19 2.421v.009c0 .843.534 1.65 1.067 2.04-.527.429-.897 1.069-1.001 1.802-.094.656-.288 2.816 1.151 3.066.506.088.907-.018 1.26-.112.427-.114.71-.189 1.07.094.41.321.373.419.26.71-.055.143-.124.323-.14.542-.04.52.18 1.39.375 2.159.048.192.095.374.133.536.206.876.548 1.413 1.017 1.596.118.045.24.068.365.068.265 0 .548-.101.846-.304 1.21-.823 2.161-2.602 2.354-3.37.083-.349.066-.71.05-1.057-.022-.462-.042-.899.178-1.223.587-.863-.329-2.133-.864-2.614-.107-.096-.197-.22-.301-.364-.328-.455-.736-1.02-2.012-1.207l-.284-.112c-.81-.321-1.979-.784-2.933-.772.41-.405.768-.722 1.052-.822.335-.118 2.114.22 3.16.506.581.233 1.179 1.176 1.516 2.013.045.114.155.184.271.184.031 0 .063-.005.094-.016 1.07-.361 2.097-1.475 2.14-1.522.07-.078.095-.188.062-.288-.066-.201-.053-.43.031-.556.03-.044.085-.105.22-.116.226-.02.829.046 1.665.179.124.25.236.505.337.767-.592.689-1.702 2.124-1.726 3.203-.019.856.404 1.22.683 1.46.213.183.262.24.246.367-.017.149-.09.41-.166.685-.245.888-.57 2.065-.074 2.648-1.626 2.314-4.316 3.83-7.353 3.83z" transform="translate(-795 -298) translate(795 298)"/>
                <path fill="#17171D" d="M18.691 1.278c.245.195.448.426.604.686.055.092.152.143.251.143.051 0 .103-.014.15-.042.139-.083.184-.263.1-.401-.191-.32-.44-.605-.74-.844-.126-.1-.31-.08-.411.046-.1.127-.08.31.046.412zM19.669 3.22c.004.07.006.141.006.212 0 .235-.023.483-.07.737-.029.159.077.311.236.34.017.003.035.005.052.005.14 0 .262-.1.288-.24.053-.289.08-.572.08-.842 0-.083-.003-.167-.008-.249-.01-.161-.149-.283-.31-.274-.162.01-.284.15-.274.31zM16.553.585h.013c.318 0 .63.039.93.114.024.006.048.009.071.009.131 0 .25-.088.284-.221.04-.157-.056-.316-.212-.356C17.293.044 16.932 0 16.564 0h-.011c-.162 0-.293.131-.293.293 0 .161.13.292.293.292zM14.214 1.313c.058 0 .118-.018.169-.054.253-.18.534-.327.836-.437.152-.056.23-.224.175-.376-.056-.151-.224-.23-.376-.174-.35.129-.678.3-.974.51-.132.093-.163.276-.07.408.058.08.148.123.24.123z" transform="translate(-795 -298) translate(795 298)"/>
            </g>
        </g>
    </g>
</svg>
