<svg xmlns="http://www.w3.org/2000/svg" width="42" height="45" viewBox="0 0 42 45">
    <g fill="none">
        <path fill="#f2f2f2" d="M20.944 1.774c3.707 0 7.135.72 10.285 2.16 3.15 1.44 5.64 3.397 7.47 5.873 1.83 2.475 2.745 5.175 2.745 8.1s-.915 5.63-2.745 8.113c-1.83 2.483-4.317 4.444-7.459 5.884-3.142 1.44-6.574 2.16-10.296 2.16-1.174 0-2.387-.084-3.637-.252-5.43 3.763-8.32 5.667-8.672 5.713-.167.06-.328.053-.48-.023-.061-.046-.107-.106-.137-.183-.031-.076-.046-.144-.046-.205v-.092c.091-.594.785-3.07 2.082-7.426-2.944-1.463-5.282-3.402-7.013-5.816C1.311 23.365.444 20.74.444 17.907c0-2.925.916-5.625 2.746-8.1 1.83-2.476 4.32-4.434 7.47-5.873 3.15-1.44 6.578-2.16 10.284-2.16zM10.557 22.181v-7.016h1.808c.244 0 .5-.087.766-.263.267-.175.4-.415.4-.72 0-.304-.122-.56-.366-.765-.244-.206-.48-.308-.709-.308H6.508c-.26 0-.504.076-.733.228-.228.152-.343.404-.343.754s.122.617.366.8c.244.183.519.274.824.274h1.807v7.016c0 .38.092.693.275.937.183.243.442.365.778.365.335 0 .599-.137.79-.411.19-.274.285-.571.285-.891zm9.907 1.302c.564-.213.74-.754.526-1.622-.06-.198-.492-1.383-1.292-3.554-.801-2.17-1.263-3.408-1.385-3.713-.412-.99-.976-1.485-1.693-1.485-.778 0-1.38.495-1.807 1.485-.122.259-.587 1.52-1.396 3.782-.808 2.262-1.228 3.424-1.258 3.485-.107.137-.134.388-.08.754.053.365.217.617.492.754.305.137.602.152.892.046.29-.107.488-.267.595-.48l.549-1.508h3.98c.169.548.29.906.367 1.074.076.152.16.304.252.457.091.152.259.3.503.445.244.145.496.172.755.08zm6.155 0c.32 0 .613-.099.88-.297.267-.198.4-.465.4-.8s-.121-.598-.365-.788c-.244-.19-.55-.286-.915-.286h-2.54v-6.9c0-.32-.095-.618-.286-.892-.19-.274-.454-.411-.79-.411-.335 0-.594.121-.777.365-.183.244-.275.556-.275.937v7.77c0 .38.092.693.275.937.183.243.442.365.778.365.015 0 .042-.004.08-.011.038-.008.064-.012.08-.012.015 0 .042.004.08.012.038.007.065.011.08.011h3.295zm9.014-.16c.26-.244.389-.522.389-.834 0-.312-.1-.59-.297-.834-.092-.137-1.053-1.424-2.883-3.862.884-.899 1.777-1.797 2.677-2.696.228-.229.37-.5.423-.812.053-.312-.034-.605-.263-.88-.26-.243-.538-.342-.835-.296-.298.045-.576.198-.835.457-.046.045-.244.247-.595.605s-.805.819-1.362 1.383c-.556.563-1.048 1.066-1.475 1.508v-2.65c0-.32-.096-.618-.286-.892-.191-.274-.454-.411-.79-.411-.335 0-.595.121-.778.365-.183.244-.274.556-.274.937v7.77c0 .38.091.693.274.937.183.243.443.365.778.365.336 0 .599-.137.79-.411.19-.274.286-.571.286-.891V20.1c.06-.06.175-.179.343-.354.168-.175.305-.316.412-.423 1.006 1.371 1.906 2.582 2.7 3.634.213.29.46.476.743.56.282.083.568.019.858-.195zM15.225 19.37l1.395-4.09 1.373 4.09h-2.768z"/>
        <path d="M0.444 0.5H41.444V44.5H0.444z"/>
    </g>
</svg>
