<svg xmlns="http://www.w3.org/2000/svg" width="24" height="24" viewBox="0 0 24 24">
    <g fill="none" fill-rule="evenodd">
        <path d="M0 0H24V24H0z"/>
        <path fill="#FBBB00" fill-rule="nonzero" d="M6.516 14.181l-.71 2.604-2.592.054C2.44 15.426 2 13.809 2 12.09c0-1.661.41-3.228 1.14-4.607l2.308.416 1.011 2.256c-.212.606-.327 1.258-.327 1.935 0 .736.136 1.44.384 2.09z"/>
        <path fill="#518EF8" fill-rule="nonzero" d="M21.827 10.065c.114.605.173 1.23.173 1.87 0 .717-.074 1.416-.216 2.09-.482 2.295-1.74 4.299-3.484 5.717l-2.824-.146-.4-2.524c1.157-.687 2.061-1.76 2.538-3.047h-5.291v-3.96H21.827z"/>
        <path fill="#28B446" fill-rule="nonzero" d="M18.451 19.756C16.728 21.16 14.538 22 12.154 22 8.32 22 4.99 19.83 3.29 16.639l3.26-2.704c.85 2.297 3.038 3.932 5.603 3.932 1.102 0 2.135-.302 3.02-.828l3.278 2.717z"/>
        <path fill="#F14336" fill-rule="nonzero" d="M18.452 4.301l-3.218 2.651c-.905-.57-1.976-.898-3.122-.898-2.589 0-4.789 1.677-5.586 4.01L3.291 7.4C4.942 4.19 8.272 2 12.11 2c2.41 0 4.62.864 6.34 2.301z"/>
    </g>
</svg>
