<svg width="36" height="36" viewBox="0 0 36 36" fill="none" xmlns="http://www.w3.org/2000/svg">
<path d="M18 0C8.07419 0 0 8.07497 0 18C0 27.925 8.07419 36 18 36C27.9258 36 36 27.925 36 18C36 8.07497 27.9258 0 18 0Z" fill="white" fill-opacity="0.2"/>
<path fill-rule="evenodd" clip-rule="evenodd" d="M22.8 16.7143H21.6V12.8571C21.6 10.727 19.9882 9 18 9C16.0118 9 14.4 10.727 14.4 12.8571V16.7143H13.2C12.5376 16.7143 12 17.2903 12 18V25.7143C12 26.424 12.5376 27 13.2 27H22.8C23.4624 27 24 26.424 24 25.7143V18C24 17.2903 23.4624 16.7143 22.8 16.7143ZM15.6 12.8571C15.6 11.4377 16.6752 10.2857 18 10.2857C19.3248 10.2857 20.4 11.4377 20.4 12.8571V16.7143H15.6V12.8571ZM22.8 25.7143H13.2V18H22.8V25.7143Z" fill="white"/>
</svg>
