<svg xmlns="http://www.w3.org/2000/svg" width="34" height="34" viewBox="0 0 34 34">
    <g fill="none" fill-rule="evenodd">
        <g>
            <g transform="translate(-534 -423) translate(534 423)">
                <rect width="34" height="34" fill="#181817" rx="17"/>
                <path fill="#f2f2f2" fill-rule="nonzero" d="M24.415 8.12c-.117-.098-.272-.139-.422-.112L12.58 10.071c-.245.044-.424.258-.424.507v9.624c-.548-.49-1.27-.79-2.062-.79C8.388 19.413 7 20.8 7 22.507S8.388 25.6 10.094 25.6s2.857-1.388 2.857-3.094V14.79l10.9-1.876v5.956c-.549-.491-1.553-1.004-2.345-1.004-1.706 0-3.093 1.387-3.093 3.093s1.387 3.094 3.093 3.094S24.6 22.665 24.6 20.96V8.516c0-.153-.068-.298-.185-.396zM10.094 24.853c-1.294 0-2.347-1.053-2.347-2.347S8.8 20.16 10.094 20.16s2.346 1.052 2.346 2.346-1.052 2.347-2.346 2.347zm2.809-10.678v-3.472L23.853 8.7v3.573l-10.95 1.902zm8.603 9.131c-1.294 0-2.346-1.053-2.346-2.347s1.052-2.346 2.346-2.346 2.347 1.052 2.347 2.346-1.053 2.347-2.347 2.347z" opacity=".5"/>
            </g>
        </g>
    </g>
</svg>
