<svg xmlns="http://www.w3.org/2000/svg" width="38" height="38" viewBox="0 0 38 38">
    <g fill="none" fill-rule="evenodd">
        <g fill="#C69CC7" fill-rule="nonzero">
            <path d="M327.6 999.259c-.253-.212-.587-.3-.911-.241l-24.64 4.453c-.53.096-.916.557-.916 1.095v20.78c-1.183-1.06-2.744-1.705-4.453-1.705-3.683 0-6.68 2.996-6.68 6.68 0 3.682 2.997 6.679 6.68 6.679s6.17-2.997 6.17-6.68v-16.66l23.531-4.05v12.859c-1.182-1.06-3.351-2.168-5.06-2.168-3.684 0-6.68 2.996-6.68 6.68 0 3.683 2.996 6.68 6.68 6.68 3.682 0 6.679-2.997 6.679-6.68v-26.868c0-.33-.146-.642-.4-.854zm-30.92 36.128c-2.794 0-5.067-2.273-5.067-5.067 0-2.793 2.273-5.066 5.067-5.066 2.793 0 5.066 2.273 5.066 5.066 0 2.794-2.273 5.067-5.066 5.067zm6.064-23.054v-7.497l23.645-4.325v7.716l-23.645 4.106zm18.576 19.714c-2.793 0-5.066-2.273-5.066-5.067 0-2.793 2.273-5.066 5.066-5.066 2.794 0 5.067 2.273 5.067 5.066 0 2.794-2.273 5.067-5.067 5.067z" transform="translate(-290 -999)"/>
        </g>
    </g>
</svg>
