<svg xmlns="http://www.w3.org/2000/svg" width="27" height="31" viewBox="0 0 27 31">
    <g fill="none" fill-rule="nonzero">
        <path fill="#27346A" d="M22.523 2.977C21.135 1.378 18.626.693 15.417.693H6.102c-.656 0-1.214.482-1.317 1.137L.907 26.69a.805.805 0 0 0 .79.934h5.75l1.444-9.258-.044.29a1.334 1.334 0 0 1 1.312-1.137h2.732c5.369 0 9.572-2.203 10.8-8.578.036-.189.068-.372.095-.552-.155-.083-.155-.083 0 0 .366-2.356-.002-3.96-1.263-5.412"/>
        <path fill="#27346A" d="M11.092 7.54c.157-.075.329-.114.503-.114h7.302c.865 0 1.671.057 2.408.177.207.033.412.072.616.118.289.065.574.144.855.237.363.122.7.264 1.01.431.366-2.357-.002-3.96-1.263-5.412C21.134 1.378 18.626.693 15.417.693H6.102c-.656 0-1.214.483-1.317 1.137L.907 26.69a.805.805 0 0 0 .789.934h5.751L10.443 8.42c.06-.383.303-.712.649-.88z"/>
        <path fill="#2790C3" d="M23.69 8.94c-1.227 6.375-5.43 8.58-10.799 8.58h-2.733c-.656 0-1.21.482-1.311 1.136L7.05 30.168a.705.705 0 0 0 .69.817h4.848a1.17 1.17 0 0 0 1.152-.994l.047-.25.913-5.852.06-.323a1.17 1.17 0 0 1 1.15-.995h.726c4.696 0 8.373-1.928 9.447-7.504.449-2.33.217-4.276-.97-5.643a4.638 4.638 0 0 0-1.327-1.035c-.028.18-.059.363-.095.552z"/>
        <path fill="#1F264F" d="M22.501 7.871a8.88 8.88 0 0 0-.58-.15c-.203-.045-.408-.084-.615-.118a14.996 14.996 0 0 0-2.409-.177h-7.301c-.175 0-.347.039-.504.115-.346.167-.589.497-.648.88l-1.552 9.945-.045.29a1.333 1.333 0 0 1 1.312-1.137h2.733c5.368 0 9.572-2.203 10.8-8.578.036-.189.067-.372.095-.552a6.592 6.592 0 0 0-1.286-.518"/>
        <path d="M.893.61H26.39v30.4H.893z"/>
    </g>
</svg>
