<svg xmlns="http://www.w3.org/2000/svg" width="48" height="48" viewBox="0 0 48 48">
    <g fill="#f2f2f2" fill-rule="evenodd">
        <path fill-opacity=".2" fill-rule="nonzero" d="M24 0C10.766 0 0 10.767 0 24s10.766 24 24 24 24-10.767 24-24S37.234 0 24 0z"/>
        <path d="M33.541 24.84l-14 9c-.164.107-.353.16-.541.16-.164 0-.33-.041-.478-.122-.323-.176-.522-.512-.522-.878V15c0-.366.2-.702.522-.878.316-.174.712-.163 1.02.037l13.999 9c.285.184.459.501.459.841 0 .34-.174.657-.459.84z"/>
    </g>
</svg>
