<?xml version="1.0" encoding="UTF-8"?>
<svg width="373px" height="329px" viewBox="0 0 373 329" version="1.1" xmlns="http://www.w3.org/2000/svg" xmlns:xlink="http://www.w3.org/1999/xlink">
    <title>Group 3</title>
    <defs>
        <polygon id="path-1" points="0 0 372.629 0 372.629 328.857 0 328.857"></polygon>
    </defs>
    <g id="섹터패스" stroke="none" stroke-width="1" fill="none" fill-rule="evenodd">
        <g id="Group-3">
            <mask id="mask-2" fill="white">
                <use xlink:href="#path-1"></use>
            </mask>
            <g id="Clip-2"></g>
            <path d="M105.5008,306.8742 C104.2218,307.6132 102.9298,308.3362 101.6548,309.0812 C97.9228,311.2312 94.1858,313.3832 90.4528,315.5332 C88.8088,316.4892 87.1638,317.4502 85.5258,318.4122 C83.3868,319.6182 81.2648,320.8582 79.1248,322.0762 C75.2448,324.2612 71.4618,326.6272 67.5018,328.6822 C64.7028,329.3302 61.4998,328.1632 60.2298,325.4892 C59.0358,323.3112 59.7468,320.7902 60.3958,318.5712 C61.4318,314.8162 62.4328,311.0502 63.4448,307.2892 C64.4408,303.5122 65.4648,299.7392 66.4728,295.9672 C67.0288,293.9192 67.5988,291.8772 68.0758,289.8172 C68.5998,287.9392 69.1858,286.0792 69.4928,284.1502 C69.8168,281.5792 69.1858,278.9902 68.0248,276.6972 C67.0688,275.1272 65.8008,273.7622 64.3328,272.6582 C61.6758,270.6952 59.0358,268.7092 56.4708,266.6272 C54.4788,265.0002 52.5268,263.3332 50.6048,261.6202 C48.8228,260.0332 47.0548,258.4292 45.3358,256.7732 C43.0658,254.5492 40.8418,252.2842 38.6908,249.9402 C37.0128,248.0912 35.3338,246.2422 33.7298,244.3242 C32.2108,242.5102 30.7308,240.6612 29.2918,238.7772 C26.9478,235.7392 24.7578,232.5882 22.6238,229.3902 C22.1968,228.7412 21.7878,228.0812 21.3718,227.4272 C19.0738,223.7922 16.9458,220.0482 14.9718,216.2252 C13.6058,213.5112 12.2918,210.7692 11.0458,207.9982 C10.6248,206.9342 10.1818,205.8822 9.7548,204.8292 C8.1788,201.0002 6.8238,197.0802 5.6178,193.1202 C4.5318,189.4682 3.5878,185.7752 2.7788,182.0542 C2.0058,178.2432 1.3678,174.4022 0.9128,170.5452 C-0.4642,159.1662 -0.2702,147.6172 1.4018,136.2832 C1.9718,132.5802 2.6428,128.8872 3.5078,125.2402 C4.4008,121.4342 5.4478,117.6672 6.6928,113.9642 C7.9388,110.0832 9.4708,106.3122 11.0118,102.5452 L11.1478,102.2092 C12.8778,98.4372 14.6468,94.6882 16.6498,91.0532 C21.0308,83.0362 26.1568,75.4302 31.9258,68.3462 C32.5918,67.5272 33.2738,66.7192 33.9398,65.9062 C36.5008,62.8672 39.1908,59.9552 41.9678,57.1152 C42.9798,56.0802 44.0168,55.0672 45.0578,54.0552 C47.9308,51.2272 50.9348,48.5362 54.0068,45.9362 C54.9048,45.1852 55.8108,44.4392 56.7268,43.7112 C63.8148,37.9932 71.3368,32.8162 79.1928,28.2072 C82.2768,26.4102 85.4058,24.6862 88.5688,23.0302 C89.2868,22.6612 90.0208,22.2962 90.7488,21.9382 C94.4638,20.1062 98.2248,18.3652 102.0358,16.7552 C109.4268,13.6202 116.9998,10.9122 124.7028,8.6762 C128.7758,7.4982 132.8788,6.4062 137.0208,5.5012 C140.4348,4.6932 143.8758,4.0172 147.3348,3.4022 C151.5058,2.6172 155.7158,2.0482 159.9258,1.5412 C166.7988,0.7052 173.7118,0.2442 180.6298,-0.0008 L191.5478,-0.0008 C199.6268,0.2332 207.6878,0.8472 215.6988,1.9112 C219.4938,2.4122 223.2708,3.0202 227.0318,3.7092 C230.8208,4.4152 234.5878,5.2282 238.3368,6.1272 C242.1538,7.0602 245.9608,8.0622 249.7218,9.2162 C257.5218,11.5432 265.1568,14.3882 272.6268,17.6312 C276.4158,19.2812 280.1198,21.1132 283.8348,22.9342 L284.1368,23.0762 C287.8628,25.0792 291.5898,27.0812 295.2018,29.2892 C303.2188,34.0792 310.8308,39.5292 318.0168,45.4862 C318.1708,45.6112 318.4668,45.8562 318.6138,45.9812 C322.1978,49.0652 325.7488,52.1942 329.0768,55.5572 C329.6408,56.1252 330.2088,56.7062 330.7898,57.2752 C333.4978,60.0002 336.0188,62.9012 338.5328,65.8032 C337.0478,66.4402 335.5678,67.0952 334.1008,67.7662 C332.4108,68.5112 330.7218,69.2512 329.0428,70.0082 C325.3278,71.6522 321.6238,73.3252 317.9088,74.9692 C314.6088,76.4422 311.3098,77.8992 308.0258,79.4012 C307.5488,79.5942 307.0758,79.7932 306.6088,79.9982 C302.8038,81.6762 299.0148,83.3952 295.2078,85.0732 C287.6068,88.4702 279.9948,91.8382 272.3988,95.2402 C264.8548,98.5742 257.3168,101.9252 249.7898,105.2992 C246.0008,107.0002 242.2058,108.6672 238.4168,110.3622 C236.0558,111.4032 233.6998,112.4732 231.3558,113.5432 C229.8828,114.1402 228.4428,114.8062 226.9868,115.4432 C223.1458,117.1672 219.2948,118.8742 215.4428,120.5812 C212.3308,121.9752 209.2188,123.3632 206.1118,124.7622 C205.4698,125.0412 204.8318,125.3202 204.2008,125.5992 C200.3948,127.2712 196.6108,128.9842 192.8108,130.6682 C185.2038,134.0532 177.5978,137.4272 170.0018,140.8292 C164.1878,143.3842 158.3958,146.0002 152.5978,148.5892 C150.8738,149.3742 149.0998,150.0572 147.2498,150.4442 C143.4728,151.0822 139.5228,150.6032 136.0418,148.9992 C135.1998,148.5782 134.3808,148.1112 133.5838,147.6052 C130.6658,145.4942 127.7188,143.4122 124.7768,141.3302 C122.3818,139.6232 119.9978,137.8992 117.5858,136.2212 C116.1628,135.1972 114.7348,134.1672 113.2958,133.1602 C109.6258,130.5202 105.9388,127.8922 102.2468,125.2742 C102.1788,125.2282 102.0418,125.1382 101.9738,125.0922 C99.3168,123.1752 96.6538,121.2632 93.9748,119.3742 C92.9388,118.6412 91.7378,118.2022 90.5318,117.8732 C86.5098,117.6502 83.0168,121.5022 83.9218,125.4902 C87.1418,133.0232 90.7088,140.3962 94.0308,147.8782 C95.8128,151.7702 97.5758,155.6612 99.3618,159.5472 C100.0568,161.0782 100.7448,162.6142 101.4338,164.1502 C102.4458,166.3522 103.4708,168.5532 104.4598,170.7672 C106.1788,174.5102 107.8618,178.2652 109.5918,182.0092 C110.6898,184.4102 111.7878,186.8222 112.8968,189.2232 C113.5288,190.6342 114.1598,192.0512 114.8038,193.4612 C116.8288,197.4102 118.0688,201.8082 120.7888,205.3632 C121.8748,206.3822 123.0638,207.2982 124.3668,208.0432 C128.1618,209.9152 132.7988,209.6872 136.4228,207.5092 C137.7368,206.7402 139.0398,205.9552 140.3488,205.1822 C142.7498,203.8332 145.1218,202.4452 147.5118,201.0802 C155.0898,196.6872 162.6798,192.3072 170.2698,187.9202 C173.5408,186.0542 176.8008,184.1592 180.0548,182.2482 C180.5898,181.9292 181.1418,181.6222 181.6878,181.3152 C185.4778,179.1582 189.2428,176.9622 193.0208,174.7832 C195.1718,173.5492 197.3278,172.3202 199.4618,171.0622 C201.1228,170.1012 202.7898,169.1402 204.4568,168.1842 C208.2288,166.0042 211.9888,163.8092 215.7778,161.6582 C216.9338,161.0032 218.0768,160.3322 219.2208,159.6552 C221.8838,158.1082 224.5578,156.5832 227.2148,155.0192 C234.7988,150.6492 242.4048,146.3022 249.9658,141.8932 C252.8508,140.2142 255.7468,138.5702 258.6258,136.8922 C259.4838,136.3972 260.3438,135.8962 261.2078,135.4012 C264.9918,133.2112 268.7918,131.0432 272.5638,128.8302 C274.5498,127.7092 276.5128,126.5542 278.4808,125.4052 C280.2788,124.3752 282.0828,123.3632 283.8748,122.3212 C291.5328,117.8952 299.1858,113.4572 306.8548,109.0422 C310.4328,106.9552 314.0398,104.9062 317.6188,102.8012 C317.8968,102.6422 318.1878,102.4772 318.4778,102.3232 C322.2218,100.1782 325.9418,97.9992 329.6858,95.8542 C332.3428,94.3302 334.9818,92.7652 337.6458,91.2352 C338.7208,90.6262 339.7898,90.0062 340.8648,89.3912 C344.4668,87.3952 347.9258,85.1472 351.6358,83.3432 C352.9268,86.0182 354.5938,88.4872 355.9818,91.1092 C358.0298,94.9042 359.9528,98.7682 361.6478,102.7332 C362.1328,103.8592 362.5938,104.9972 363.0538,106.1352 C364.1178,108.7702 365.1028,111.4262 365.9948,114.1232 C367.1958,117.7422 368.2198,121.4172 369.1128,125.1262 C370.0068,128.8872 370.7058,132.6932 371.2808,136.5172 C371.8108,140.2772 372.2028,144.0612 372.4188,147.8612 C372.629245,151.6672 372.6808,155.4912 372.5778,159.3022 C372.4408,163.0972 372.1798,166.8862 371.7418,170.6532 C371.2918,174.4312 370.6718,178.1862 369.9158,181.9122 C369.1188,185.6792 368.1748,189.4112 367.0878,193.1092 C364.6978,201.0342 361.5748,208.7432 357.8138,216.1222 C353.7458,224.1222 348.8938,231.7112 343.4378,238.8402 C342.4698,240.0922 341.4798,241.3382 340.4838,242.5662 C338.4128,245.0812 336.2908,247.5512 334.0838,249.9452 C332.5248,251.6122 330.9488,253.2632 329.3388,254.8842 C326.9718,257.2112 324.5538,259.4922 322.0668,261.6882 C320.7758,262.8442 319.4558,263.9652 318.1308,265.0742 C314.8768,267.7992 311.5198,270.3992 308.0658,272.8742 C307.5548,273.2382 307.0478,273.6032 306.5358,273.9672 C302.8098,276.5952 298.9968,279.1032 295.0768,281.4482 C293.5588,282.3582 292.0218,283.2402 290.4748,284.1102 C288.2838,285.3452 286.0708,286.5572 283.8288,287.6952 C280.0798,289.6062 276.2788,291.4102 272.4218,293.0832 C270.6188,293.8732 268.8038,294.6192 266.9888,295.3642 C264.9398,296.1722 262.8748,296.9452 260.8048,297.7082 C257.1518,299.0622 253.4418,300.2742 249.7158,301.4182 C245.8128,302.5722 241.8818,303.6432 237.9218,304.5872 C234.5648,305.4172 231.1688,306.0832 227.7888,306.8062 C227.5958,306.8342 227.2148,306.8912 227.0258,306.9192 C223.2428,307.5972 219.4538,308.2112 215.6468,308.7122 C211.8698,309.2062 208.0868,309.6102 204.2918,309.9122 C200.4908,310.1852 196.6858,310.4242 192.8788,310.5262 C189.0838,310.6352 185.2948,310.6572 181.4998,310.5722 C177.7048,310.4802 173.9098,310.3052 170.1208,310.0312 C166.3258,309.7582 162.5428,309.3832 158.7658,308.9102 C155.3568,308.4892 151.9668,307.9492 148.5808,307.4032 C147.3578,307.1922 146.1408,306.9472 144.9168,306.7602 C141.9808,306.1632 139.0458,305.5652 136.1268,304.8772 C132.2698,303.9832 128.4458,302.9312 124.6288,301.8842 C120.8858,300.8892 116.8688,301.2072 113.2778,302.6182" id="Fill-1" fill="#00C800" mask="url(#mask-2)"></path>
        </g>
    </g>
</svg>