<svg xmlns="http://www.w3.org/2000/svg" xmlns:xlink="http://www.w3.org/1999/xlink" width="48" height="19" viewBox="0 0 48 19">
    <defs>
        <path id="prefix__a" d="M0 18.8L47.812 18.8 47.812 0 0 0z"/>
    </defs>
    <g fill="none" fill-rule="evenodd">
        <path fill="#f2f2f2" d="M25.636 5.31v3.993h2.115c1.549 0 2.323-.64 2.323-1.922v-.268c0-.616-.186-1.07-.558-1.363-.372-.293-.907-.44-1.601-.44h-2.28zM24.16 4.029h3.835c.605 0 1.13.077 1.576.23.446.155.815.368 1.107.641.292.273.51.599.654.976.144.378.216.785.216 1.222v.313c0 .437-.077.847-.23 1.23-.154.382-.38.717-.676 1.005-.298.288-.666.517-1.107.685-.441.17-.954.254-1.538.254h-2.362v4.187H24.16V4.029zM37.685 11.062h-2.04c-.567 0-.971.109-1.215.327-.243.22-.365.522-.365.91v.208c0 .397.14.685.418.864.277.179.61.268.997.268.358 0 .668-.042.931-.126.263-.085.504-.211.723-.38.198-.15.34-.32.424-.514.084-.194.127-.445.127-.753v-.804zM35.33 14.89c-.824 0-1.477-.204-1.958-.611-.482-.407-.722-.968-.722-1.684v-.402c0-.695.233-1.261.7-1.699.466-.437 1.22-.655 2.263-.655h2.07v-.477c0-.546-.131-.951-.394-1.215-.263-.263-.693-.394-1.288-.394-.477 0-.892.074-1.244.223-.353.15-.717.348-1.095.596L32.948 7.5c.398-.278.844-.519 1.34-.722.497-.204 1.073-.306 1.729-.306.456 0 .873.057 1.25.172.378.114.703.283.976.506.273.224.487.497.64.82.154.323.231.688.231 1.095v5.707H37.73v-.984h-.015c-.08.15-.186.286-.32.41s-.28.231-.44.32c-.218.12-.453.211-.707.276-.253.065-.558.097-.916.097zM44.149 13.133L46.293 6.621 47.812 6.621 43.583 18.139 42.272 17.677 43.329 14.891 40.366 6.621 41.929 6.621 44.089 13.133z"/>
        <mask id="prefix__b" fill="#f2f2f2">
            <use xlink:href="#prefix__a"/>
        </mask>
        <path fill="#00C73C" d="M0 18.8L18.792 18.8 18.792 0 0 0z" mask="url(#prefix__b)"/>
        <path fill="#f2f2f2" d="M10.89 13.703L7.859 9.248 7.859 13.703 4.698 13.703 4.698 5.097 7.903 5.097 10.934 9.551 10.934 5.097 14.094 5.097 14.094 13.703z" mask="url(#prefix__b)"/>
    </g>
</svg>
