<?xml version="1.0" encoding="UTF-8"?>
<svg width="36px" height="36px" viewBox="0 0 36 36" version="1.1" xmlns="http://www.w3.org/2000/svg" xmlns:xlink="http://www.w3.org/1999/xlink">
    <title>Combined Shape</title>
    <g id="섹터패스" stroke="none" stroke-width="1" fill="none" fill-rule="evenodd">
        <path d="M36,32 C36,34.209139 34.209139,36 32,36 L5,36 C2.23857625,36 0,33.7614237 0,31 L0,5 C0,2.23857625 2.23857625,0 5,0 L31,0 C33.7614237,0 36,2.23857625 36,5 L36,24.962 C32.049,23.601 27.89,22.531 23.91,21.17 C26,17.641 27,13 27,13 L20,13 L20,11 L29,11 L29,9 L20,9 L20,5.02 L16,5 L16,9 L7,9 L7,11 L16,11 L16,13 L8,13 L8,15 L8.01082234,15 L8.01082234,15 L13.7067031,14.9990887 C13.819625,14.999055 13.9330833,14.99902 14.046963,14.9989837 L16.4608652,14.998015 C16.575,14.9979583 16.68875,14.9979 16.802,14.99784 L18.1296296,14.997037 C18.237037,14.996963 18.3434838,14.996887 18.4488547,14.9968092 L19.365037,14.9960563 C19.4629167,14.9959667 19.559375,14.995875 19.6542969,14.9957813 L20.2044693,14.9951934 C20.2927847,14.9950911 20.3793333,14.9949867 20.464,14.99488 L20.9484954,14.994213 C21.0251736,14.9940972 21.0997396,14.9939792 21.1720781,14.9938587 L21.5784589,14.9931075 C22.0192361,14.9921972 22.3395833,14.9911667 22.5,14.99 C22.219,15.783 21.51,18.179 20.485,20.045 C16.602,18.84 13.019,18 10.143,18 C3.245,18 1.715,21.481 2.041,24.664 C2.304,27.204 4.186,30.912 9.934,30.912 C15.185,30.912 19.424,27.889 22.033,24.29 C22.4852727,24.4991818 22.9398595,24.7085041 23.3954095,24.9177836 L24.763598,25.5453103 C28.8687273,27.426405 32.9424545,29.2891818 36,31 L36,32 Z M9.775,20.238 C11.815,20.238 15.051,21.284 18.684,22.808 C16.631,25.516 13.341,28.762 9.098,28.762 C4.24,28.762 3.488,26.012 3.404,24.37 C3.325,22.934 4.29,20.238 9.775,20.238 Z" id="Combined-Shape" fill="#5B9EDD" fill-rule="nonzero"></path>
    </g>
</svg>