<svg width="35" height="27" viewBox="0 0 35 27" fill="none" xmlns="http://www.w3.org/2000/svg">
<path d="M33.6163 0V1.98054C30.7946 3.00449 28.5833 4.62126 26.9826 6.83084C25.3818 9.01347 24.5814 11.2904 24.5814 13.6617C24.5814 14.1737 24.6628 14.5509 24.8256 14.7934C24.9341 14.9551 25.0562 15.0359 25.1919 15.0359C25.3275 15.0359 25.531 14.9416 25.8023 14.753C26.6705 14.1332 27.7694 13.8234 29.0988 13.8234C30.6453 13.8234 32.0155 14.4566 33.2093 15.7231C34.4031 16.9626 35 18.4446 35 20.1692C35 21.9746 34.3081 23.5644 32.9244 24.9386C31.5678 26.3129 29.9128 27 27.9593 27C25.6802 27 23.7132 26.0704 22.0581 24.2111C20.4031 22.3518 19.5756 19.8593 19.5756 16.7335C19.5756 13.0958 20.7016 9.83533 22.9535 6.9521C25.2054 4.06886 28.7597 1.7515 33.6163 0ZM14.0407 0V1.98054C11.219 3.00449 9.00775 4.62126 7.40698 6.83084C5.8062 9.01347 5.00581 11.2904 5.00581 13.6617C5.00581 14.1737 5.08721 14.5509 5.25 14.7934C5.35853 14.9551 5.48062 15.0359 5.61628 15.0359C5.75194 15.0359 5.95543 14.9416 6.22674 14.753C7.09496 14.1332 8.1938 13.8234 9.52326 13.8234C11.0698 13.8234 12.4399 14.4566 13.6337 15.7231C14.8275 16.9626 15.4244 18.4446 15.4244 20.1692C15.4244 21.9746 14.7326 23.5644 13.3488 24.9386C11.9922 26.3129 10.3372 27 8.38372 27C6.10465 27 4.1376 26.0704 2.48256 24.2111C0.827519 22.3518 0 19.8593 0 16.7335C0 13.0958 1.12597 9.83533 3.37791 6.9521C5.62985 4.06886 9.18411 1.7515 14.0407 0Z" fill="white"/>
</svg>
