<svg width="24" height="19" viewBox="0 0 24 19" fill="none" xmlns="http://www.w3.org/2000/svg">
<path fill-rule="evenodd" clip-rule="evenodd" d="M22.3098 1.39231C21.4224 0.501131 20.2144 0 18.9571 0C17.6986 0 16.4919 0.501131 15.6045 1.39231L16.7241 2.51197C17.5232 1.71293 18.6883 1.40115 19.7789 1.694C20.8708 1.98685 21.7228 2.8389 22.017 3.93079C22.3085 5.02267 21.9968 6.18651 21.1977 6.98554L14.8862 13.297C14.0885 14.096 12.9246 14.4091 11.834 14.1175C10.7434 13.8272 9.89008 12.9751 9.59723 11.8858C9.30438 10.7951 9.6149 9.63131 10.4127 8.83102L11.526 7.71136L10.4127 6.5917L9.29302 7.71136C8.40184 8.60002 7.90071 9.80677 7.90071 11.064C7.90071 12.3225 8.40184 13.5293 9.29302 14.4179C10.1855 15.299 11.391 15.79 12.6457 15.7825C13.908 15.7875 15.1223 15.2877 16.0147 14.3939L22.3262 8.08247C24.1679 6.22943 24.1603 3.23526 22.3098 1.39231ZM2.541 15.6398C1.9452 15.0478 1.61069 14.2437 1.61069 13.4043C1.61069 12.5649 1.9452 11.7595 2.541 11.1675L8.85248 4.85605C9.44449 4.26025 10.2498 3.92574 11.0893 3.92574C11.9287 3.92574 12.7328 4.26025 13.3248 4.85605C13.9168 5.45311 14.2412 6.26351 14.2248 7.1042C14.2299 7.94741 13.8966 8.75654 13.3021 9.35234L11.6295 11.0489L12.7492 12.1685L14.4217 10.496C16.276 8.64293 16.276 5.63615 14.4217 3.7831C12.5687 1.92879 9.56189 1.92879 7.70757 3.7831L1.3961 10.0946C0.503656 10.9832 0 12.19 0 13.4523C0 14.7108 0.503656 15.9201 1.39736 16.8075C2.29485 17.6822 3.50413 18.1644 4.75759 18.1493C6.02241 18.1505 7.23674 17.6519 8.13423 16.7608L7.01331 15.6398C6.4213 16.2356 5.61721 16.5701 4.77779 16.5701C3.93836 16.5701 3.13302 16.2356 2.541 15.6398Z" fill="white"/>
</svg>
