<svg width="56" height="56" viewBox="0 0 56 56" fill="none" xmlns="http://www.w3.org/2000/svg">
<path fill-rule="evenodd" clip-rule="evenodd" d="M39.4623 19.5457C38.4771 18.5564 37.136 18 35.7402 18C34.343 18 33.0033 18.5564 32.0181 19.5457L33.2612 20.7888C34.1482 19.9017 35.4417 19.5555 36.6525 19.8807C37.8647 20.2058 38.8107 21.1517 39.1372 22.3639C39.4609 23.5761 39.1148 24.8682 38.2277 25.7553L31.2207 32.7623C30.335 33.6494 29.043 33.9969 27.8322 33.6732C26.6214 33.3509 25.674 32.4049 25.3489 31.1955C25.0238 29.9847 25.3685 28.6926 26.2542 27.8042L27.4902 26.5611L26.2542 25.3181L25.0112 26.5611C24.0218 27.5477 23.4654 28.8874 23.4654 30.2832C23.4654 31.6804 24.0218 33.0201 25.0112 34.0067C26.0019 34.9849 27.3403 35.53 28.7333 35.5216C30.1346 35.5272 31.4828 34.9723 32.4736 33.9801L39.4805 26.9731C41.5252 24.9159 41.5168 21.5918 39.4623 19.5457ZM17.5151 35.3633C16.8536 34.706 16.4823 33.8133 16.4823 32.8814C16.4823 31.9495 16.8536 31.0554 17.5151 30.3981L24.5221 23.3912C25.1793 22.7297 26.0734 22.3583 27.0053 22.3583C27.9373 22.3583 28.83 22.7297 29.4872 23.3912C30.1445 24.054 30.5046 24.9537 30.4864 25.887C30.492 26.8232 30.122 27.7215 29.462 28.3829L27.6051 30.2664L28.8482 31.5094L30.705 29.6526C32.7637 27.5953 32.7637 24.2572 30.705 22.2C28.6478 20.1413 25.3097 20.1413 23.251 22.2L16.244 29.2069C15.2532 30.1935 14.6941 31.5333 14.6941 32.9347C14.6941 34.3318 15.2532 35.6744 16.2454 36.6596C17.2418 37.6307 18.5844 38.1661 19.9759 38.1492C21.3801 38.1506 22.7283 37.5971 23.7247 36.6077L22.4802 35.3633C21.823 36.0247 20.9303 36.3961 19.9984 36.3961C19.0664 36.3961 18.1724 36.0247 17.5151 35.3633Z" fill="white"/>
</svg>
