<svg xmlns="http://www.w3.org/2000/svg" width="487" height="72" viewBox="0 0 487 72">
    <g fill="none" fill-rule="evenodd">
        <g fill="#f2f2f2" fill-rule="nonzero">
            <path d="M279.4 318c5.4 0 9.517-1.533 12.35-4.6 2.833-3.067 4.25-7.467 4.25-13.2 0-4.4-.867-8.233-2.6-11.5-1.733-3.267-4.9-6.9-9.5-10.9-3.6-3.133-6.083-5.8-7.45-8s-2.05-4.567-2.05-7.1c0-4.467 1.833-6.7 5.5-6.7 1.8 0 3.167.55 4.1 1.65.933 1.1 1.4 2.85 1.4 5.25v3.6h10.4v-2.9c0-5.667-1.35-10.017-4.05-13.05-2.7-3.033-6.683-4.55-11.95-4.55-5.333 0-9.4 1.517-12.2 4.55-2.8 3.033-4.2 7.317-4.2 12.85 0 4.067.9 7.717 2.7 10.95 1.8 3.233 4.967 6.85 9.5 10.85 3.6 3.133 6.067 5.817 7.4 8.05 1.333 2.233 2 4.817 2 7.75 0 2.467-.483 4.25-1.45 5.35-.967 1.1-2.383 1.65-4.25 1.65-3.8 0-5.7-2.267-5.7-6.8v-4.8h-10.4v4c0 5.667 1.367 10.017 4.1 13.05 2.733 3.033 6.767 4.55 12.1 4.55zm53.9-1v-10h-19v-21.5h15.1v-10h-15.1V257h19v-10h-30v70h30zm22.8 1c5.267 0 9.283-1.5 12.05-4.5 2.767-3 4.15-7.233 4.15-12.7v-9.9h-10.4v10.7c0 4.267-1.833 6.4-5.5 6.4s-5.5-2.133-5.5-6.4v-39.1c0-4.333 1.833-6.5 5.5-6.5s5.5 2.167 5.5 6.5v8.1h10.4v-7.4c0-5.467-1.383-9.7-4.15-12.7-2.767-3-6.783-4.5-12.05-4.5s-9.283 1.5-12.05 4.5c-2.767 3-4.15 7.233-4.15 12.7v37.6c0 5.467 1.383 9.7 4.15 12.7 2.767 3 6.783 4.5 12.05 4.5zm34.8-1v-30h3.8c2.533 0 4.317.633 5.35 1.9 1.033 1.267 1.55 3.5 1.55 6.7v13.204c.007 2.383.074 4.049.2 4.996.133 1 .4 2.067.8 3.2h11.2c-.533-1.2-.867-2.417-1-3.65s-.2-2.85-.2-4.85v-12.3c0-4.133-.55-7.433-1.65-9.9-1.1-2.467-2.983-4.1-5.65-4.9v-.2c4.8-1.933 7.2-6.533 7.2-13.8v-4.3c0-5.467-1.3-9.517-3.9-12.15-2.6-2.633-6.733-3.95-12.4-3.95h-16.3v70h11zm4-40h-4v-20h5c1.933 0 3.35.567 4.25 1.7.9 1.133 1.35 2.967 1.35 5.5v5.4c0 2.667-.55 4.567-1.65 5.7-1.1 1.133-2.75 1.7-4.95 1.7zm56.3 40v-10h-19v-21.5h15.1v-10h-15.1V257h19v-10h-30v70h30zm26.9 0v-60h11.5v-10h-34v10h11.5v60h11zm50.3 1c5.267 0 9.283-1.5 12.05-4.5 2.767-3 4.15-7.233 4.15-12.7v-9.9h-10.4v10.7c0 4.267-1.833 6.4-5.5 6.4s-5.5-2.133-5.5-6.4v-39.1c0-4.333 1.833-6.5 5.5-6.5s5.5 2.167 5.5 6.5v8.1h10.4v-7.4c0-5.467-1.383-9.7-4.15-12.7-2.767-3-6.783-4.5-12.05-4.5s-9.283 1.5-12.05 4.5c-2.767 3-4.15 7.233-4.15 12.7v37.6c0 5.467 1.383 9.7 4.15 12.7 2.767 3 6.783 4.5 12.05 4.5zm39.9 0c5.4 0 9.533-1.533 12.4-4.6 2.867-3.067 4.3-7.4 4.3-13v-36.8c0-5.6-1.433-9.933-4.3-13s-7-4.6-12.4-4.6-9.533 1.533-12.4 4.6c-2.867 3.067-4.3 7.4-4.3 13v36.8c0 5.6 1.433 9.933 4.3 13s7 4.6 12.4 4.6zm0-10c-3.8 0-5.7-2.3-5.7-6.9v-38.2c0-4.6 1.9-6.9 5.7-6.9 3.8 0 5.7 2.3 5.7 6.9v38.2c0 4.6-1.9 6.9-5.7 6.9zm41.1 10c5.333 0 9.4-1.517 12.2-4.55 2.8-3.033 4.2-7.383 4.2-13.05V247h-10.6v54.2c0 2.4-.483 4.133-1.45 5.2-.967 1.067-2.35 1.6-4.15 1.6-1.8 0-3.183-.533-4.15-1.6-.967-1.067-1.45-2.8-1.45-5.2V247h-11v53.4c0 5.667 1.4 10.017 4.2 13.05 2.8 3.033 6.867 4.55 12.2 4.55zm36.2-1v-28.5h5.2c5.467 0 9.567-1.467 12.3-4.4 2.733-2.933 4.1-7.233 4.1-12.9v-6.9c0-5.667-1.367-9.967-4.1-12.9-2.733-2.933-6.833-4.4-12.3-4.4h-16.2v70h11zm5.2-38.5h-5.2V257h5.2c1.8 0 3.15.5 4.05 1.5.9 1 1.35 2.7 1.35 5.1v8.3c0 2.4-.45 4.1-1.35 5.1-.9 1-2.25 1.5-4.05 1.5zm39.3 39.5c5.4 0 9.533-1.533 12.4-4.6 2.867-3.067 4.3-7.4 4.3-13v-36.8c0-5.6-1.433-9.933-4.3-13s-7-4.6-12.4-4.6-9.533 1.533-12.4 4.6c-2.867 3.067-4.3 7.4-4.3 13v36.8c0 5.6 1.433 9.933 4.3 13s7 4.6 12.4 4.6zm0-10c-3.8 0-5.7-2.3-5.7-6.9v-38.2c0-4.6 1.9-6.9 5.7-6.9 3.8 0 5.7 2.3 5.7 6.9v38.2c0 4.6-1.9 6.9-5.7 6.9zm34.9 9v-51.1h.2l13.2 51.1h11.3v-70h-9.8v41.9h-.2L729 247h-13.8v70h9.8z" transform="translate(-263 -246)"/>
        </g>
    </g>
</svg>
