<svg width="50" height="50" viewBox="0 0 50 50" fill="none" xmlns="http://www.w3.org/2000/svg">
<rect x="0.631148" y="0.631148" width="48.7377" height="48.7377" rx="24.3689" stroke="white" stroke-width="1.2623"/>
<path d="M21.6873 24.2279H23.0565L22.3719 22.2827L21.6873 24.2279Z" fill="white"/>
<path d="M24.8862 14C18.3213 14 13 18.1956 13 23.3718C13 26.7182 15.2252 29.6578 18.5716 31.3127C18.3899 31.9401 17.4013 35.3517 17.3625 35.6203C17.3625 35.6203 17.3385 35.8214 17.4687 35.898C17.5123 35.92 17.56 35.9328 17.6087 35.9358C17.6574 35.9387 17.7063 35.9317 17.7522 35.9151C18.1271 35.8626 22.0952 33.0796 22.781 32.6007C23.4785 32.6976 24.182 32.7453 24.8862 32.7436C31.451 32.7436 36.7724 28.548 36.7724 23.3718C36.7724 18.1956 31.451 14 24.8862 14ZM19.0037 21.9169C18.9888 23.2426 19.0151 24.637 18.9934 25.9422C18.9865 26.3593 18.7465 26.4839 18.4219 26.6028C18.3853 26.6157 18.3458 26.6185 18.3076 26.6108C17.9362 26.5376 17.6402 26.4051 17.631 25.9433C17.6048 24.6393 17.639 23.2426 17.6208 21.9169C17.3065 21.9043 16.8584 21.9295 16.567 21.9169C16.1624 21.8906 15.8813 21.6334 15.8984 21.2506C15.9155 20.8677 16.1201 20.5923 16.5739 20.5854C17.6459 20.5694 18.9739 20.5694 20.046 20.5854C20.5031 20.5923 20.7066 20.8688 20.7203 21.2506C20.734 21.6323 20.4574 21.8906 20.054 21.9169C19.766 21.9295 19.3191 21.9043 19.0037 21.9169ZM24.7639 26.5399C24.6268 26.6023 24.4779 26.6347 24.3273 26.6348C24.0416 26.6348 23.8233 26.5205 23.7558 26.3319L23.413 25.4427H21.326L20.9832 26.3319C20.9169 26.5182 20.6986 26.6348 20.4117 26.6348C20.2614 26.6348 20.1129 26.6024 19.9763 26.5399C19.7865 26.4531 19.6048 26.213 19.8128 25.5662L21.4575 21.2483C21.5264 21.0581 21.65 20.8925 21.8126 20.7721C21.9752 20.6518 22.1697 20.582 22.3718 20.5717C22.5737 20.5832 22.7678 20.6534 22.9303 20.7739C23.0927 20.8943 23.2164 21.0596 23.2861 21.2494L24.925 25.565C25.1342 26.213 24.9525 26.4576 24.7639 26.5399ZM28.2292 26.5399H26.0291C25.8587 26.5433 25.6939 26.4791 25.5708 26.3613C25.4476 26.2435 25.3761 26.0817 25.3719 25.9113V21.2574C25.3792 21.0767 25.4562 20.9057 25.5866 20.7804C25.7171 20.6551 25.891 20.5851 26.0719 20.5851C26.2528 20.5851 26.4267 20.6551 26.5572 20.7804C26.6877 20.9057 26.7647 21.0767 26.772 21.2574V25.2862H28.2292C28.3149 25.281 28.4008 25.2934 28.4815 25.3227C28.5623 25.3519 28.6362 25.3974 28.6988 25.4562C28.7613 25.5151 28.8111 25.5862 28.8452 25.665C28.8793 25.7439 28.8968 25.8289 28.8968 25.9147C28.8968 26.0006 28.8793 26.0856 28.8452 26.1645C28.8111 26.2433 28.7613 26.3144 28.6988 26.3733C28.6362 26.4321 28.5623 26.4776 28.4815 26.5068C28.4008 26.5361 28.3149 26.5485 28.2292 26.5433V26.5399ZM33.6008 26.0233C33.583 26.1586 33.5252 26.2855 33.4348 26.3877C33.3445 26.49 33.2257 26.5629 33.0936 26.5973C32.9616 26.6317 32.8223 26.6258 32.6936 26.5806C32.5649 26.5354 32.4526 26.4528 32.371 26.3433L30.763 24.2141L30.5253 24.4518V25.9479C30.5253 26.1298 30.453 26.3042 30.3244 26.4328C30.1958 26.5614 30.0214 26.6336 29.8395 26.6336C29.6576 26.6336 29.4832 26.5614 29.3546 26.4328C29.226 26.3042 29.1538 26.1298 29.1538 25.9479V21.262C29.1538 21.0801 29.226 20.9057 29.3546 20.7771C29.4832 20.6485 29.6576 20.5763 29.8395 20.5763C30.0214 20.5763 30.1958 20.6485 30.3244 20.7771C30.453 20.9057 30.5253 21.0801 30.5253 21.262V22.7318L32.4385 20.8186C32.4886 20.769 32.548 20.73 32.6134 20.7037C32.6787 20.6774 32.7486 20.6644 32.8191 20.6654C32.9903 20.6699 33.1538 20.7375 33.2783 20.8552C33.4027 20.9729 33.4793 21.1324 33.4934 21.3031C33.4995 21.3793 33.4894 21.4559 33.4635 21.5279C33.4377 21.5998 33.3968 21.6654 33.3436 21.7203L31.7779 23.2826L33.4659 25.5193C33.5752 25.6644 33.6225 25.8469 33.5974 26.0268L33.6008 26.0233Z" fill="white"/>
</svg>
