<svg width="24" height="24" viewBox="0 0 24 24" fill="none" xmlns="http://www.w3.org/2000/svg">
<path fill-rule="evenodd" clip-rule="evenodd" d="M7.91944 21.5484C11.3313 21.5703 14.6105 20.2247 17.0227 17.8124C19.435 15.3988 20.7806 12.121 20.7601 8.70912V8.11974C21.6353 7.47702 22.3928 6.68935 23 5.78955C22.1754 6.15057 21.303 6.38851 20.41 6.50064C21.3563 5.9345 22.0674 5.04701 22.4093 3.99815C21.5272 4.52874 20.559 4.90069 19.5499 5.09897C18.1523 3.60842 15.9274 3.24331 14.1251 4.20464C12.3227 5.16735 11.3901 7.21857 11.8496 9.20962C8.22166 9.03184 4.84125 7.31839 2.55072 4.50002C1.36512 6.55671 1.97638 9.17953 3.94965 10.4991C3.2495 10.4718 2.5644 10.2804 1.9504 9.93848V9.98908C1.93672 12.1223 3.41634 13.978 5.50037 14.4389C4.84809 14.6139 4.16435 14.6412 3.49975 14.5195C4.10144 16.3287 5.77387 17.5663 7.68013 17.61C6.08976 18.89 4.11238 19.5943 2.07074 19.6093C1.71246 19.5984 1.35554 19.5683 1 19.519C3.06763 20.8359 5.46892 21.5292 7.91944 21.5183" fill="white"/>
</svg>
