<svg width="32" height="32" viewBox="0 0 32 32" fill="none" xmlns="http://www.w3.org/2000/svg">
<path d="M25.646 10C22.8901 10 20.646 7.75732 20.646 5C20.646 2.24268 22.8901 0 25.646 0C28.4021 0 30.646 2.24268 30.646 5C30.646 7.75732 28.4021 10 25.646 10ZM25.646 2C23.9927 2 22.646 3.34521 22.646 5C22.646 6.65479 23.9927 8 25.646 8C27.2993 8 28.646 6.65479 28.646 5C28.646 3.34521 27.2993 2 25.646 2Z" fill="white"/>
<path d="M25.646 32C22.8901 32 20.646 29.7573 20.646 27C20.646 24.2427 22.8901 22 25.646 22C28.4021 22 30.646 24.2427 30.646 27C30.646 29.7573 28.4021 32 25.646 32ZM25.646 24C23.9927 24 22.646 25.3452 22.646 27C22.646 28.6548 23.9927 30 25.646 30C27.2993 30 28.646 28.6548 28.646 27C28.646 25.3452 27.2993 24 25.646 24Z" fill="white"/>
<path d="M6.3125 21C3.5564 21 1.3125 18.7573 1.3125 16C1.3125 13.2427 3.5564 11 6.3125 11C9.0686 11 11.3125 13.2427 11.3125 16C11.3125 18.7573 9.0686 21 6.3125 21ZM6.3125 13C4.65918 13 3.3125 14.3452 3.3125 16C3.3125 17.6548 4.65918 19 6.3125 19C7.96582 19 9.3125 17.6548 9.3125 16C9.3125 14.3452 7.96582 13 6.3125 13Z" fill="white"/>
<path d="M9.79383 15.0266C9.44569 15.0266 9.10706 14.8452 8.92445 14.5227C8.65101 14.0427 8.81776 13.4319 9.29774 13.1587L21.6698 6.10523C22.1483 5.82935 22.7604 5.99732 23.0323 6.47876C23.3058 6.95874 23.139 7.56934 22.6591 7.84278L10.287 14.896C10.131 14.9839 9.9618 15.0266 9.79383 15.0266Z" fill="white"/>
<path d="M22.1646 26.0266C21.9966 26.0266 21.8272 25.9838 21.6712 25.8947L9.29909 18.8413C8.81911 18.5681 8.65261 17.9572 8.9258 17.4773C9.19777 16.9961 9.80861 16.8293 10.2886 17.104L22.6604 24.1572C23.1404 24.4306 23.3071 25.0412 23.034 25.5212C22.8499 25.8452 22.5113 26.0266 22.1646 26.0266Z" fill="white"/>
</svg>
