<svg width="56" height="56" viewBox="0 0 56 56" fill="none" xmlns="http://www.w3.org/2000/svg">
<path fill-rule="evenodd" clip-rule="evenodd" d="M23.7387 37.9927C27.5545 38.0172 31.2219 36.5123 33.9198 33.8144C36.6176 31.1151 38.1225 27.4492 38.0996 23.6334V22.9742C39.0784 22.2554 39.9256 21.3745 40.6047 20.3681C39.6825 20.7719 38.7067 21.038 37.708 21.1634C38.7664 20.5302 39.5616 19.5377 39.944 18.3646C38.9575 18.958 37.8747 19.374 36.746 19.5958C35.183 17.9288 32.6947 17.5204 30.679 18.5956C28.6633 19.6723 27.6202 21.9663 28.1341 24.1931C24.0767 23.9943 20.296 22.078 17.7343 18.9259C16.4083 21.2261 17.092 24.1595 19.2989 25.6353C18.5158 25.6047 17.7496 25.3906 17.0629 25.0083V25.0649C17.0476 27.4507 18.7024 29.5261 21.0332 30.0415C20.3037 30.2372 19.539 30.2678 18.7957 30.1317C19.4686 32.1551 21.3391 33.5392 23.471 33.5881C21.6924 35.0196 19.4809 35.8072 17.1975 35.824C16.7968 35.8118 16.3976 35.7782 16 35.7231C18.3124 37.1959 20.998 37.9713 23.7387 37.9591" fill="white"/>
</svg>
