<svg xmlns="http://www.w3.org/2000/svg" width="24" height="16" viewBox="0 0 24 16">
    <g fill="none" fill-rule="evenodd">
        <g fill="#f2f2f2" fill-rule="nonzero">
            <path d="M818.56 332c.243 0 .44.197.44.44v12.457c0 .243-.197.44-.44.44h-2.784c-.155 1.331-1.282 2.335-2.622 2.335-1.34 0-2.467-1.004-2.622-2.335H802c-.155 1.331-1.282 2.335-2.622 2.335-1.34 0-2.467-1.004-2.621-2.335h-1.32c-.118-.001-.231-.05-.313-.135-.082-.085-.126-.2-.123-.318V340.6c0-.09.028-.177.08-.25l.343-.488.941-1.32 2.406-3.444c.082-.119.217-.19.36-.19h3.727v-2.467c0-.243.197-.44.44-.44zm-19.192 11.138c-.971 0-1.76.787-1.76 1.76 0 .97.789 1.759 1.76 1.759v.022c.976-.012 1.76-.807 1.76-1.782 0-.972-.788-1.76-1.76-1.76zm13.777 0c-.972 0-1.76.787-1.76 1.76 0 .97.788 1.759 1.76 1.759v.022c.976-.012 1.76-.807 1.76-1.782 0-.972-.788-1.76-1.76-1.76zm-7.07-1.506l-2.339-.001v2.826h6.788c.154-1.33 1.281-2.335 2.621-2.335s2.467 1.004 2.622 2.335h2.344v-2.815H806.17c-.032 0-.064-.003-.094-.01zm-3.197-5.845h-3.518l-.45.63h2.464c.243 0 .44.196.44.44v3.254c0 .243-.197.44-.44.44h-5.366l-.132.19v3.716h.88c.154-1.33 1.281-2.335 2.621-2.335s2.467 1.004 2.622 2.335h.88v-8.67zm15.233-.907h-11.188l-.01.001h-3.177v5.867h14.375v-5.868zm-17.177 2.425h-2.639l-1.676 2.375h4.315v-2.375zm17.177-4.425h-14.375v1.117h14.375v-1.117z" transform="translate(-795 -332)"/>
        </g>
    </g>
</svg>
