<svg xmlns="http://www.w3.org/2000/svg" width="41" height="38" viewBox="0 0 41 38">
    <defs>
        <filter id="fc6hq4xnga">
            <feColorMatrix in="SourceGraphic" values="0 0 0 0 0.713725 0 0 0 0 0.549020 0 0 0 0 0.427451 0 0 0 1.000000 0"/>
        </filter>
    </defs>
    <g fill="none" fill-rule="evenodd">
        <g filter="url(#fc6hq4xnga)" transform="translate(-700 -999)">
            <g fill="#000" fill-rule="nonzero">
                <path d="M29.77 37.907H1.718C.769 37.907 0 37.055 0 36.005V15.709c0-1.051.769-1.903 1.718-1.903H29.77c.949 0 1.718.852 1.718 1.903v20.296c0 1.05-.769 1.902-1.718 1.902zM1.718 15.075c-.317 0-.573.284-.573.634v20.296c0 .35.256.634.573.634H29.77c.317 0 .573-.284.573-.634V15.709c0-.35-.256-.634-.573-.634H1.718z" transform="translate(700 999)"/>
                <path d="M39.765 35.812c-.08 0-.158-.018-.231-.051l-8.683-4.018c-.21-.099-.347-.323-.347-.57v-11.68c0-.247.136-.47.347-.57l8.683-4.017c.179-.084.385-.065.549.05.163.115.261.31.261.52V35.19c0 .165-.061.323-.17.44-.108.116-.255.182-.409.182zm-8.103-5.048l7.524 3.479V16.42l-7.524 3.48v10.864zM24.03 24.285h-9.684c-.315 0-.57-.294-.57-.656v-4.975c0-.363.255-.656.57-.656h9.684c.315 0 .57.293.57.656v4.975c0 .362-.255.656-.57.656zm-9.115-1.312h8.546V19.31h-8.546v3.663zM22.632 14.854c-2.786 0-5.297-1.787-6.363-4.528-1.067-2.741-.477-5.896 1.493-7.994 1.97-2.098 4.932-2.725 7.506-1.59 2.574 1.136 4.252 3.81 4.252 6.777-.004 4.05-3.086 7.33-6.888 7.335zm0-13.448c-3.17 0-5.74 2.737-5.74 6.113 0 3.376 2.57 6.112 5.74 6.112 3.17 0 5.74-2.736 5.74-6.112-.003-3.374-2.571-6.109-5.74-6.113z" transform="translate(700 999)"/>
                <path d="M10.824 14.854c-3.26 0-5.904-2.815-5.904-6.287 0-3.473 2.643-6.288 5.904-6.288 3.26 0 5.904 2.815 5.904 6.288-.004 3.47-2.645 6.283-5.904 6.287zm0-11.317c-2.609 0-4.723 2.252-4.723 5.03 0 2.778 2.114 5.03 4.723 5.03s4.723-2.252 4.723-5.03c-.003-2.777-2.116-5.027-4.723-5.03z" transform="translate(700 999)"/>
            </g>
        </g>
    </g>
</svg>
