<svg xmlns="http://www.w3.org/2000/svg" width="34" height="34" viewBox="0 0 34 34">
    <defs>
        <filter id="70xoa7lffa">
            <feColorMatrix in="SourceGraphic" values="0 0 0 0 1.000000 0 0 0 0 1.000000 0 0 0 0 1.000000 0 0 0 1.000000 0"/>
        </filter>
    </defs>
    <g fill="none" fill-rule="evenodd">
        <g>
            <g transform="translate(-534 -533) translate(534 533)">
                <rect width="34" height="34" fill="#181817" rx="17"/>
                <g filter="url(#70xoa7lffa)" opacity=".5">
                    <g fill="#000" fill-rule="nonzero">
                        <path d="M15.103 18.943H.871c-.48 0-.871-.426-.871-.951V7.85c0-.525.39-.951.871-.951h14.232c.481 0 .871.426.871.95v10.143c0 .525-.39.95-.87.95zM.871 7.533c-.16 0-.29.142-.29.317v10.142c0 .175.13.317.29.317h14.232c.16 0 .29-.142.29-.317V7.85c0-.175-.13-.317-.29-.317H.871z" transform="translate(8 6)"/>
                        <path d="M20.174 17.895c-.04 0-.08-.008-.118-.025l-4.405-2.008c-.107-.05-.176-.161-.176-.285V9.741c0-.123.07-.235.176-.285l4.405-2.007c.09-.042.196-.033.279.025.082.057.132.155.132.26v9.851c0 .082-.03.161-.086.22-.055.058-.13.09-.207.09zm-4.112-2.522l3.818 1.739V8.205l-3.818 1.739v5.43zM12.191 12.135H7.278c-.16 0-.29-.146-.29-.327V9.32c0-.18.13-.327.29-.327h4.913c.16 0 .289.146.289.327v2.487c0 .18-.13.327-.289.327zm-4.624-.655h4.335V9.65H7.567v1.83zM11.482 7.423c-1.414 0-2.688-.893-3.229-2.263-.54-1.37-.242-2.946.758-3.995 1-1.048 2.502-1.361 3.808-.794s2.157 1.904 2.157 3.386c-.002 2.024-1.565 3.663-3.494 3.666zm0-6.72C9.873.703 8.57 2.07 8.57 3.757c0 1.687 1.303 3.055 2.912 3.055 1.608 0 2.912-1.368 2.912-3.055-.002-1.686-1.305-3.052-2.912-3.054z" transform="translate(8 6)"/>
                        <path d="M5.491 7.423c-1.654 0-2.995-1.407-2.995-3.142 0-1.735 1.341-3.142 2.995-3.142 1.654 0 2.995 1.407 2.995 3.142-.001 1.734-1.341 3.14-2.995 3.142zm0-5.656c-1.323 0-2.396 1.126-2.396 2.514s1.073 2.513 2.396 2.513c1.324 0 2.396-1.125 2.396-2.513-.001-1.388-1.073-2.512-2.396-2.514z" transform="translate(8 6)"/>
                    </g>
                </g>
            </g>
        </g>
    </g>
</svg>
