<svg width="36" height="36" viewBox="0 0 36 36" fill="none" xmlns="http://www.w3.org/2000/svg">
<g opacity="0.8">
<path fill-rule="evenodd" clip-rule="evenodd" d="M28.5897 10.4098C27.6912 9.50742 26.468 9 25.195 9C23.9207 9 22.6988 9.50742 21.8003 10.4098L22.934 11.5435C23.743 10.7344 24.9228 10.4187 26.0271 10.7153C27.1327 11.0118 27.9954 11.8745 28.2932 12.9801C28.5884 14.0857 28.2727 15.2641 27.4637 16.0732L21.073 22.4639C20.2652 23.2729 19.0868 23.5899 17.9825 23.2946C16.8782 23.0007 16.0142 22.1379 15.7176 21.0349C15.4211 19.9306 15.7355 18.7522 16.5433 17.9418L17.6706 16.8081L16.5433 15.6744L15.4096 16.8081C14.5073 17.7079 13.9998 18.9298 13.9998 20.2028C13.9998 21.4771 14.5073 22.699 15.4096 23.5988C16.3133 24.491 17.5339 24.9882 18.8043 24.9805C20.0825 24.9856 21.312 24.4795 22.2157 23.5745L28.6063 17.1839C30.4711 15.3076 30.4635 12.2759 28.5897 10.4098ZM8.57288 24.8361C7.9696 24.2366 7.6309 23.4225 7.6309 22.5725C7.6309 21.7225 7.9696 20.9071 8.57288 20.3076L14.9635 13.917C15.563 13.3137 16.3784 12.975 17.2284 12.975C18.0784 12.975 18.8925 13.3137 19.492 13.917C20.0914 14.5215 20.4199 15.3421 20.4033 16.1933C20.4084 17.0471 20.071 17.8664 19.469 18.4697L17.7754 20.1875L18.9091 21.3212L20.6027 19.6277C22.4802 17.7514 22.4802 14.7069 20.6027 12.8306C18.7264 10.953 15.6819 10.953 13.8043 12.8306L7.41362 19.2212C6.50998 20.121 6 21.3429 6 22.6211C6 23.8954 6.50998 25.1198 7.41489 26.0183C8.32365 26.9041 9.5481 27.3923 10.8173 27.377C12.098 27.3783 13.3275 26.8734 14.2363 25.9711L13.1013 24.8361C12.5019 25.4393 11.6877 25.7781 10.8377 25.7781C9.98778 25.7781 9.17233 25.4393 8.57288 24.8361Z" fill="white"/>
</g>
</svg>
