<svg width="35" height="12" viewBox="0 0 35 12" fill="none" xmlns="http://www.w3.org/2000/svg">
<path d="M29.0287 0.0810812L28.7826 0.119713C21.2363 1.30712 13.5334 1.29561 5.99112 0.0856612C4.69274 -0.122934 3.35789 0.0557158 2.1717 0.596835C-0.219048 1.68828 0.00562397 3.84409 0.00562397 5.9999C0.00562397 8.15571 -0.219048 10.3115 2.1717 11.403C3.35778 11.9444 4.69263 12.1234 5.99112 11.9151C13.5334 10.7049 21.2364 10.693 28.7828 11.8801L29.0287 11.9187C30.3375 12.1245 31.6816 11.9371 32.872 11.3829C35.2328 10.2832 34.9932 8.14177 34.9932 6.0003C34.9932 3.85883 35.2328 1.71735 32.872 0.617744C31.6817 0.0631846 30.3376 -0.124506 29.0287 0.0810812Z" fill="white"/>
</svg>
