<svg width="36" height="36" viewBox="0 0 36 36" fill="none" xmlns="http://www.w3.org/2000/svg">
<g opacity="0.8" clip-path="url(#clip0_1155_520)">
<path d="M14.2497 9.25L10.083 10.9167L8.83301 15.0833L10.083 25.0833L14.2497 26.3333L20.083 27.1667L25.9163 25.0833L26.7497 20.5V14.6667L25.083 10.0833L21.333 9.25H14.2497Z" fill="white"/>
<path d="M17.9965 27.9538C16.6056 27.9538 15.2148 27.9822 13.8251 27.9482C10.6686 27.8706 8.49171 25.8382 8.21189 22.6837C7.92462 19.4551 7.92946 16.2071 8.22635 12.9794C8.46844 10.35 10.3102 8.51175 12.9951 8.19466C13.9923 8.07654 14.9953 8.01383 15.9995 8.0068C17.8708 7.99293 19.7433 8.0068 21.6127 8.07488C22.4357 8.09952 23.2531 8.22053 24.048 8.43547C26.2381 9.05074 27.5875 10.7326 27.7919 13.0065C28.0748 16.1585 28.0434 19.3105 27.8403 22.4624C27.8085 22.996 27.7184 23.5245 27.5718 24.0384C26.904 26.3243 25.2924 27.5485 23.0068 27.8618C21.895 28.0144 20.7544 27.9646 19.6264 27.9948C19.0831 28.0093 18.5392 27.9948 17.9953 27.9948L17.9965 27.9538ZM17.9808 10.1502C16.5289 10.1861 15.0431 10.1836 13.5623 10.2693C11.5187 10.3866 10.3775 11.4715 10.2347 13.4125C10.016 16.4134 10.016 19.4263 10.2347 22.4271C10.3523 24.0454 11.1326 25.02 12.5801 25.3944C13.0453 25.5145 13.5219 25.5846 14.0018 25.6037C15.1506 25.6491 16.3013 25.6756 17.4514 25.6636C19.1963 25.646 20.9456 25.656 22.6842 25.5325C24.5926 25.397 25.6489 24.2811 25.7816 22.4101C25.9923 19.4186 25.9923 16.4159 25.7816 13.4244C25.6722 11.8573 24.9459 10.8978 23.5689 10.4817C23.191 10.3603 22.7993 10.287 22.4031 10.2636C20.9412 10.2132 19.4773 10.188 17.9808 10.1502Z" fill="white"/>
<path d="M13.1035 18.1929C13.1079 15.4545 15.2879 13.2298 17.9697 13.2285C20.6515 13.2273 22.8498 15.4721 22.841 18.2219C22.8328 20.9578 20.649 23.1667 17.9565 23.1623C15.2641 23.1579 13.0997 20.9358 13.1035 18.1929ZM20.7855 18.1929C20.7855 16.6112 19.5354 15.334 17.9811 15.3265C16.4267 15.3189 15.1465 16.6163 15.1515 18.2049C15.1572 19.7809 16.4198 21.0719 17.9603 21.0776C19.5172 21.0833 20.7855 19.7878 20.7855 18.1935V18.1929Z" fill="black"/>
<path d="M23.2685 14.4304C22.971 14.4238 22.6879 14.3008 22.4797 14.0877C22.2715 13.8746 22.1547 13.5883 22.1543 13.29C22.1539 12.9917 22.2699 12.705 22.4775 12.4914C22.6851 12.2777 22.9679 12.1539 23.2654 12.1465C23.5629 12.1531 23.846 12.2761 24.0542 12.4892C24.2624 12.7023 24.3792 12.9886 24.3796 13.2869C24.38 13.5852 24.264 13.8719 24.0564 14.0855C23.8488 14.2992 23.566 14.423 23.2685 14.4304V14.4304Z" fill="black"/>
</g>
<defs>
<clipPath id="clip0_1155_520">
<rect width="20" height="20" fill="white" transform="translate(8 8)"/>
</clipPath>
</defs>
</svg>
