<svg width="24" height="24" viewBox="0 0 24 24" fill="none" xmlns="http://www.w3.org/2000/svg">
<g opacity="0.5" clip-path="url(#clip0_827_2559)">
<path d="M26 23.1605L3.1685 0.281839L2.28773 -0.600755L1.45271 -1.4375L0 0.0182071L5.02156 5.05014L7.54949 10.3916L6.00528 13.1998C5.82226 13.5208 5.71931 13.899 5.71931 14.3002C5.71931 15.561 6.74879 16.5926 8.00704 16.5926H16.5403L18.1188 18.1744C17.5469 18.5871 17.1694 19.2633 17.1694 20.0313C17.1694 21.2922 18.1874 22.3238 19.4457 22.3238C20.2121 22.3238 20.8869 21.9455 21.2987 21.3609L24.5473 24.6162L26 23.1605ZM8.48746 14.3002C8.32732 14.3002 8.2015 14.1741 8.2015 14.0136L8.23581 13.8761L9.26529 12.0077H11.9648L14.2525 14.3002H8.48746ZM17.7871 12.0077C18.645 12.0077 19.3999 11.5378 19.7888 10.8271L23.8839 3.38811C23.9754 3.22764 24.0211 3.03278 24.0211 2.83792C24.0211 2.2075 23.5064 1.6917 22.8773 1.6917H7.48086L17.7871 12.0077ZM8.00704 17.7389C6.74879 17.7389 5.73075 18.7705 5.73075 20.0313C5.73075 21.2922 6.74879 22.3238 8.00704 22.3238C9.26529 22.3238 10.2948 21.2922 10.2948 20.0313C10.2948 18.7705 9.26529 17.7389 8.00704 17.7389Z" fill="white"/>
</g>
<defs>
<clipPath id="clip0_827_2559">
<rect width="24" height="24" fill="white"/>
</clipPath>
</defs>
</svg>
