<svg width="36" height="36" viewBox="0 0 36 36" fill="none" xmlns="http://www.w3.org/2000/svg">
<g opacity="0.8">
<path fill-rule="evenodd" clip-rule="evenodd" d="M13.9194 26.9997C17.3313 27.0218 20.6105 25.6669 23.0227 23.238C25.435 20.8077 26.7806 17.5072 26.7601 14.0718V13.4783C27.6353 12.8312 28.3928 12.0381 29 11.1321C28.1754 11.4956 27.303 11.7352 26.41 11.8481C27.3563 11.278 28.0674 10.3844 28.4093 9.32829C27.5272 9.86253 26.559 10.2371 25.5499 10.4367C24.1523 8.93586 21.9274 8.56822 20.1251 9.5362C18.3227 10.5056 17.3901 12.5709 17.8496 14.5757C14.2217 14.3967 10.8412 12.6715 8.55072 9.83362C7.36512 11.9045 7.97638 14.5455 9.94965 15.8742C9.2495 15.8466 8.5644 15.6539 7.9504 15.3096V15.3606C7.93672 17.5086 9.41634 19.3771 11.5004 19.8411C10.8481 20.0174 10.1643 20.0449 9.49975 19.9223C10.1014 21.744 11.7739 22.9901 13.6801 23.0342C12.0898 24.323 10.1124 25.0321 8.07074 25.0473C7.71246 25.0362 7.35554 25.0059 7 24.9564C9.06763 26.2824 11.4689 26.9805 13.9194 26.9694" fill="white"/>
</g>
</svg>
