<svg width="36" height="36" viewBox="0 0 36 36" fill="none" xmlns="http://www.w3.org/2000/svg">
<path opacity="0.8" d="M7 18.9831V17.0159C7.03107 16.5044 7.04502 15.9916 7.0977 15.4823C7.18775 14.5857 7.26294 13.6891 7.42053 12.8023C7.63755 11.5843 8.37957 10.789 9.58939 10.4712C10.0021 10.3648 10.4244 10.3001 10.8501 10.2779C12.6885 10.1753 14.5273 10.0506 16.3675 10.0184C18.4409 9.98161 20.517 10.0018 22.5895 10.0632C24.0303 10.1053 25.4711 10.2282 26.9119 10.3685C28.3076 10.503 29.2631 11.3722 29.5463 12.7302C29.6938 13.4594 29.7983 14.1966 29.8592 14.9381C30.0047 16.5265 30.0375 18.1231 29.9574 19.7161C29.8952 20.8615 29.8272 22.0056 29.6017 23.1344C29.3248 24.5183 28.4927 25.3898 27.0875 25.6001C25.9766 25.7605 24.8577 25.8593 23.7358 25.896C21.7457 25.9665 19.7544 26.0012 17.7619 26C15.2018 25.9959 12.6407 25.9619 10.0937 25.644C8.71861 25.4723 7.7258 24.6456 7.46106 23.3052C7.2769 22.3736 7.20216 21.4223 7.09815 20.4742C7.04187 19.9779 7.03107 19.4794 7 18.9831ZM16.2112 21.4398L22.1824 17.9991L16.2112 14.5579V21.4398Z" fill="white"/>
</svg>
