<svg width="218" height="25" viewBox="0 0 218 25" fill="none" xmlns="http://www.w3.org/2000/svg">
<path opacity="0.8" d="M4.88965 0.151998L9.64965 0.0499996C9.83098 0.0499996 9.92165 0.242666 9.92165 0.627998C9.92165 1.01333 9.83098 1.206 9.64965 1.206H8.18765C7.62098 1.206 7.24698 1.31933 7.06565 1.546C6.88432 1.75 6.79365 2.158 6.79365 2.77V21.64H8.76565C12.3697 21.64 14.863 21.164 16.2457 20.212L16.4836 18.342C16.529 18.1607 16.7217 18.07 17.0617 18.07C17.4243 18.07 17.6056 18.138 17.6056 18.274L17.2996 23.748C17.2996 23.9067 17.1183 23.986 16.7557 23.986C16.4157 23.986 16.2457 23.9067 16.2457 23.748V23H5.19565L0.435649 23.068C0.254316 23.068 0.163649 22.8753 0.163649 22.49C0.163649 22.1047 0.254316 21.912 0.435649 21.912H1.89765C2.46432 21.912 2.83832 21.81 3.01965 21.606C3.20098 21.3793 3.29165 20.96 3.29165 20.348V4.232C3.29165 2.23733 3.05365 1.24 2.57765 1.24H0.605649C0.424316 1.24 0.333649 1.05867 0.333649 0.695999C0.333649 0.310666 0.424316 0.117999 0.605649 0.117999C0.605649 0.117999 2.03365 0.129332 4.88965 0.151998ZM21.7247 8.754C23.5607 7.054 25.6914 6.204 28.1167 6.204C30.542 6.204 32.6614 7.054 34.4747 8.754C36.3107 10.454 37.2287 12.4713 37.2287 14.806C37.2287 17.118 36.3107 19.1353 34.4747 20.858C32.6614 22.5807 30.542 23.442 28.1167 23.442C25.6914 23.442 23.5607 22.5807 21.7247 20.858C19.9114 19.1353 19.0047 17.118 19.0047 14.806C19.0047 12.4713 19.9114 10.454 21.7247 8.754ZM32.2307 9.57C31.1654 8.142 29.794 7.428 28.1167 7.428C26.4394 7.428 25.068 8.142 24.0027 9.57C22.9374 10.9753 22.4047 12.7207 22.4047 14.806C22.4047 16.8687 22.9374 18.6253 24.0027 20.076C25.068 21.504 26.4394 22.218 28.1167 22.218C29.794 22.218 31.1654 21.504 32.2307 20.076C33.296 18.6253 33.8287 16.8687 33.8287 14.806C33.8287 12.7207 33.296 10.9753 32.2307 9.57ZM53.7631 15.894L57.2651 15.826C57.4237 15.826 57.5031 15.996 57.5031 16.336C57.5031 16.676 57.4237 16.846 57.2651 16.846H56.5171C56.1091 16.846 55.8257 16.9253 55.6671 17.084C55.5311 17.2427 55.4631 17.5373 55.4631 17.968C55.4631 20.4613 55.5197 22.0593 55.6331 22.762C55.7691 23.4647 55.8371 23.8613 55.8371 23.952C55.8371 24.156 55.7237 24.258 55.4971 24.258C55.3157 24.258 55.1004 23.9407 54.8511 23.306C54.6244 22.694 54.4091 22.388 54.2051 22.388C54.1597 22.388 53.8991 22.4787 53.4231 22.66C52.0631 23.1813 50.7484 23.442 49.4791 23.442C46.6004 23.442 44.2204 22.7393 42.3391 21.334C40.4804 19.9287 39.5511 17.8773 39.5511 15.18C39.5511 12.4827 40.5484 10.318 42.5431 8.686C44.5604 7.03133 46.9631 6.204 49.7511 6.204C50.9751 6.204 52.3124 6.51 53.7631 7.122V6.578C53.7631 6.39667 53.9104 6.306 54.2051 6.306C54.4997 6.306 54.6471 6.39667 54.6471 6.578C54.6471 7.98333 54.7264 9.23 54.8851 10.318C54.9077 10.386 54.8624 10.454 54.7491 10.522C54.6584 10.5673 54.5111 10.59 54.3071 10.59C54.1031 10.59 53.9784 10.5107 53.9331 10.352L53.7631 9.264C52.4257 8.06267 50.8957 7.462 49.1731 7.462C47.4731 7.462 46.0111 8.11933 44.7871 9.434C43.5857 10.7487 42.9851 12.5167 42.9851 14.738C42.9851 16.9593 43.5971 18.7613 44.8211 20.144C46.0451 21.5267 47.5864 22.218 49.4451 22.218C50.0344 22.218 50.5897 22.15 51.1111 22.014C51.6324 21.8553 52.0064 21.6967 52.2331 21.538L52.5731 21.3V19.022C52.5731 17.5713 52.4031 16.846 52.0631 16.846H49.4451C49.2864 16.846 49.2071 16.6873 49.2071 16.37C49.2071 16.03 49.2864 15.86 49.4451 15.86L53.7631 15.894ZM59.4389 6.578L62.1249 6.646C62.3743 6.646 62.5896 6.646 62.7709 6.646L66.3069 6.578C66.4656 6.578 66.5449 6.748 66.5449 7.088C66.5449 7.40533 66.4543 7.564 66.2729 7.564H64.7089C64.4143 7.564 64.2669 7.74533 64.2669 8.108V19.362C64.2669 21.0847 64.4936 21.946 64.9469 21.946H66.6469C66.8283 21.946 66.9189 22.1273 66.9189 22.49C66.9189 22.83 66.8509 23 66.7149 23L62.7709 22.966L59.3709 23.068C59.2123 23.068 59.1329 22.898 59.1329 22.558C59.1329 22.218 59.2009 22.048 59.3369 22.048H60.8669C61.1163 22.048 61.2636 22.0027 61.3089 21.912C61.3543 21.7987 61.3769 21.5153 61.3769 21.062V10.352C61.3769 8.53867 61.1503 7.632 60.6969 7.632H59.4729C59.2009 7.632 59.0649 7.462 59.0649 7.122C59.0649 6.75933 59.1896 6.578 59.4389 6.578ZM84.7567 10.216C84.7567 10.352 84.598 10.42 84.2807 10.42C83.986 10.42 83.8387 10.3407 83.8387 10.182C83.612 9.07133 83.272 8.45933 82.8187 8.346C82.0027 8.16467 80.7674 8.05133 79.1127 8.006H78.4667C78.24 8.02867 78.1267 8.21 78.1267 8.55V19.362C78.1267 21.0847 78.3534 21.946 78.8067 21.946H80.5067C80.688 21.946 80.7787 22.1273 80.7787 22.49C80.7787 22.83 80.7107 23 80.5747 23L76.6307 22.966L73.2307 23.068C73.072 23.068 72.9927 22.898 72.9927 22.558C72.9927 22.218 73.0607 22.048 73.1967 22.048H74.7267C74.976 22.048 75.1234 22.0027 75.1687 21.912C75.214 21.7987 75.2367 21.5153 75.2367 21.062V10.726C75.2367 9.026 75.0327 8.11933 74.6247 8.006C72.7887 8.006 71.4174 8.11933 70.5107 8.346C70.0574 8.45933 69.7174 9.07133 69.4907 10.182C69.4907 10.3407 69.332 10.42 69.0147 10.42C68.72 10.42 68.5727 10.352 68.5727 10.216L68.7427 6.136C68.7427 6 68.89 5.932 69.1847 5.932C69.502 5.932 69.6607 6 69.6607 6.136V6.578C69.6607 6.578 71.1454 6.60067 74.1147 6.646H76.6307C80.076 6.646 82.388 6.62333 83.5667 6.578H83.6687V6.136C83.6687 6 83.816 5.932 84.1107 5.932C84.428 5.932 84.5867 6 84.5867 6.136L84.7567 10.216ZM86.7824 6.578L90.2504 6.646H97.2884V6.102C97.2884 5.966 97.4357 5.898 97.7304 5.898C98.0477 5.898 98.2064 5.966 98.2064 6.102C98.2064 7.89267 98.2857 9.17333 98.4444 9.944C98.4897 10.08 98.365 10.148 98.0704 10.148C97.685 10.148 97.4924 10.08 97.4924 9.944C97.175 8.90133 96.869 8.312 96.5744 8.176C95.6224 7.836 94.2397 7.666 92.4264 7.666C92.109 7.68867 91.8937 7.77933 91.7804 7.938C91.667 8.09667 91.6104 8.38 91.6104 8.788V14.364C94.353 14.2733 95.8604 14.1487 96.1324 13.99L96.3704 12.562C96.4157 12.4487 96.5744 12.392 96.8464 12.392C97.141 12.392 97.2884 12.4713 97.2884 12.63C97.1977 13.2873 97.1524 14.024 97.1524 14.84C97.1524 15.6333 97.1977 16.3587 97.2884 17.016C97.2884 17.152 97.1297 17.22 96.8124 17.22C96.5177 17.22 96.3704 17.1747 96.3704 17.084L96.0984 15.622C95.8264 15.4633 94.3304 15.3387 91.6104 15.248V19.362C91.6104 21.062 91.837 21.912 92.2904 21.912H93.3784C95.8717 21.8667 97.5944 21.5153 98.5464 20.858L98.7164 19.532C98.7617 19.396 98.875 19.328 99.0564 19.328C99.2604 19.328 99.3964 19.328 99.4644 19.328C99.6004 19.3733 99.6684 19.4413 99.6684 19.532C99.5324 20.484 99.4644 21.8213 99.4644 23.544C99.4644 23.6573 99.3057 23.714 98.9884 23.714C98.6937 23.714 98.5464 23.6573 98.5464 23.544V23H92.4944L86.7144 23.068C86.5557 23.068 86.4764 22.898 86.4764 22.558C86.4764 22.218 86.5444 22.048 86.6804 22.048H88.2104C88.4597 22.048 88.607 22.0027 88.6524 21.912C88.6977 21.7987 88.7204 21.5153 88.7204 21.062V10.352C88.7204 8.53867 88.4937 7.632 88.0404 7.632H86.8164C86.5444 7.632 86.4084 7.462 86.4084 7.122C86.4084 6.75933 86.533 6.578 86.7824 6.578ZM111.595 23.442C108.83 23.442 106.541 22.7053 104.727 21.232C102.914 19.7587 102.007 17.7413 102.007 15.18C102.007 12.596 102.982 10.454 104.931 8.754C106.881 7.054 109.204 6.204 111.901 6.204C113.216 6.204 114.508 6.53267 115.777 7.19V6.612C115.777 6.45333 115.913 6.374 116.185 6.374C116.48 6.374 116.627 6.45333 116.627 6.612C116.627 8.04 116.741 9.52467 116.967 11.066C116.99 11.134 116.945 11.202 116.831 11.27C116.741 11.3153 116.593 11.338 116.389 11.338C116.185 11.338 116.061 11.2473 116.015 11.066L115.743 9.264C114.474 8.06267 113.012 7.462 111.357 7.462C109.725 7.462 108.32 8.16467 107.141 9.57C105.985 10.9753 105.407 12.732 105.407 14.84C105.407 16.948 106.019 18.7047 107.243 20.11C108.467 21.4927 109.907 22.184 111.561 22.184C113.216 22.184 114.78 21.6967 116.253 20.722L116.423 18.784C116.423 18.6027 116.582 18.512 116.899 18.512C117.217 18.512 117.375 18.5913 117.375 18.75L117.171 23.068C117.171 23.204 117.013 23.272 116.695 23.272C116.401 23.272 116.253 23.204 116.253 23.068V22.49C114.689 23.1247 113.137 23.442 111.595 23.442ZM130.955 6.578L133.641 6.646C133.89 6.646 134.105 6.646 134.287 6.646L137.823 6.578C137.981 6.578 138.061 6.748 138.061 7.088C138.061 7.40533 137.97 7.564 137.789 7.564H136.225C135.93 7.564 135.783 7.74533 135.783 8.108V19.362C135.783 21.0847 136.009 21.946 136.463 21.946H138.163C138.344 21.946 138.435 22.1273 138.435 22.49C138.435 22.83 138.367 23 138.231 23L134.287 22.966L130.887 23.068C130.728 23.068 130.649 22.898 130.649 22.558C130.649 22.218 130.717 22.048 130.853 22.048H132.383C132.632 22.048 132.779 22.0027 132.825 21.912C132.87 21.7987 132.893 21.5153 132.893 21.062V15.52H124.665V19.362C124.665 21.0847 124.891 21.946 125.345 21.946H127.045C127.226 21.946 127.317 22.1273 127.317 22.49C127.317 22.83 127.249 23 127.113 23L123.169 22.966L119.769 23.068C119.61 23.068 119.531 22.898 119.531 22.558C119.531 22.218 119.599 22.048 119.735 22.048H121.265C121.514 22.048 121.661 22.0027 121.707 21.912C121.752 21.7987 121.775 21.5153 121.775 21.062V10.352C121.775 8.53867 121.548 7.632 121.095 7.632H119.871C119.599 7.632 119.463 7.462 119.463 7.122C119.463 6.75933 119.587 6.578 119.837 6.578L122.523 6.646C122.772 6.646 122.987 6.646 123.169 6.646L126.705 6.578C126.863 6.578 126.943 6.748 126.943 7.088C126.943 7.40533 126.852 7.564 126.671 7.564H125.107C124.812 7.564 124.665 7.74533 124.665 8.108V14.228H132.893V10.352C132.893 8.53867 132.666 7.632 132.213 7.632H130.989C130.717 7.632 130.581 7.462 130.581 7.122C130.581 6.75933 130.705 6.578 130.955 6.578ZM149.878 0.117999L154.332 0.186H158.242C161.143 0.186 163.319 0.752666 164.77 1.886C166.22 2.99667 166.946 4.368 166.946 6C166.946 7.20133 166.481 8.278 165.552 9.23C164.622 10.1593 163.455 10.76 162.05 11.032V11.168C164.09 11.5307 165.699 12.256 166.878 13.344C168.056 14.432 168.646 15.6673 168.646 17.05C168.646 18.7047 167.773 20.11 166.028 21.266C164.282 22.422 161.925 23 158.956 23H155.658L149.878 23.068C149.696 23.068 149.606 22.8753 149.606 22.49C149.606 22.1047 149.696 21.912 149.878 21.912H151.34C151.906 21.912 152.28 21.81 152.462 21.606C152.643 21.3793 152.734 20.96 152.734 20.348V4.266C152.734 2.27133 152.496 1.274 152.02 1.274H149.878C149.696 1.274 149.606 1.08133 149.606 0.695999C149.606 0.310666 149.696 0.117999 149.878 0.117999ZM156.236 18.648C156.236 20.6427 156.485 21.64 156.984 21.64H158.718C160.599 21.64 162.038 21.2207 163.036 20.382C164.033 19.5433 164.532 18.4327 164.532 17.05C164.532 15.554 164.01 14.364 162.968 13.48C161.789 12.46 159.545 11.882 156.236 11.746V18.648ZM156.236 3.11V10.386C156.78 10.4767 157.38 10.522 158.038 10.522C159.692 10.522 160.973 10.114 161.88 9.298C162.809 8.45933 163.274 7.41667 163.274 6.17C163.274 4.92333 162.775 3.84667 161.778 2.94C160.78 2.01067 159.262 1.546 157.222 1.546C156.564 1.546 156.236 2.06733 156.236 3.11ZM171.776 6.578L174.462 6.646C174.711 6.646 174.926 6.646 175.108 6.646L178.644 6.578C178.802 6.578 178.882 6.748 178.882 7.088C178.882 7.40533 178.791 7.564 178.61 7.564H177.046C176.751 7.564 176.604 7.74533 176.604 8.108V19.362C176.604 21.062 176.83 21.912 177.284 21.912H178.168C180.661 21.8667 182.384 21.5153 183.336 20.858L183.506 19.532C183.551 19.396 183.664 19.328 183.846 19.328C184.05 19.328 184.186 19.328 184.254 19.328C184.39 19.3733 184.458 19.4413 184.458 19.532C184.322 20.484 184.254 21.8213 184.254 23.544C184.254 23.6573 184.095 23.714 183.778 23.714C183.483 23.714 183.336 23.6573 183.336 23.544V23H177.488L171.708 23.068C171.549 23.068 171.47 22.898 171.47 22.558C171.47 22.218 171.538 22.048 171.674 22.048H173.204C173.453 22.048 173.6 22.0027 173.646 21.912C173.691 21.7987 173.714 21.5153 173.714 21.062V10.352C173.714 8.53867 173.487 7.632 173.034 7.632H171.81C171.538 7.632 171.402 7.462 171.402 7.122C171.402 6.75933 171.526 6.578 171.776 6.578ZM200.011 6.646L202.799 6.578C202.958 6.578 203.037 6.748 203.037 7.088C203.037 7.40533 202.958 7.564 202.799 7.564H202.085C201.677 7.564 201.416 7.64333 201.303 7.802C201.19 7.938 201.11 8.23267 201.065 8.686C200.884 12.6753 200.793 15.4067 200.793 16.88C200.793 18.92 200.136 20.5293 198.821 21.708C197.529 22.864 195.999 23.442 194.231 23.442C192.463 23.442 190.91 22.898 189.573 21.81C188.258 20.722 187.601 19.192 187.601 17.22V10.148C187.601 8.47067 187.352 7.632 186.853 7.632H185.663C185.482 7.632 185.391 7.462 185.391 7.122C185.391 6.75933 185.482 6.578 185.663 6.578L188.961 6.646L192.531 6.578C192.712 6.578 192.803 6.75933 192.803 7.122C192.803 7.462 192.712 7.632 192.531 7.632H191.477C191.069 7.632 190.797 7.71133 190.661 7.87C190.548 8.02867 190.491 8.32333 190.491 8.754V16.54C190.491 18.2627 190.888 19.532 191.681 20.348C192.497 21.164 193.574 21.572 194.911 21.572C196.248 21.572 197.28 21.1187 198.005 20.212C198.753 19.2827 199.127 17.8887 199.127 16.03C199.127 13.4007 199.093 11.3493 199.025 9.876C198.98 8.38 198.798 7.632 198.481 7.632H197.121C196.985 7.632 196.917 7.462 196.917 7.122C196.917 6.782 196.985 6.612 197.121 6.612L200.011 6.646ZM204.365 6.578L207.833 6.646H214.871V6.102C214.871 5.966 215.019 5.898 215.313 5.898C215.631 5.898 215.789 5.966 215.789 6.102C215.789 7.89267 215.869 9.17333 216.027 9.944C216.073 10.08 215.948 10.148 215.653 10.148C215.268 10.148 215.075 10.08 215.075 9.944C214.758 8.90133 214.452 8.312 214.157 8.176C213.205 7.836 211.823 7.666 210.009 7.666C209.692 7.68867 209.477 7.77933 209.363 7.938C209.25 8.09667 209.193 8.38 209.193 8.788V14.364C211.936 14.2733 213.443 14.1487 213.715 13.99L213.953 12.562C213.999 12.4487 214.157 12.392 214.429 12.392C214.724 12.392 214.871 12.4713 214.871 12.63C214.781 13.2873 214.735 14.024 214.735 14.84C214.735 15.6333 214.781 16.3587 214.871 17.016C214.871 17.152 214.713 17.22 214.395 17.22C214.101 17.22 213.953 17.1747 213.953 17.084L213.681 15.622C213.409 15.4633 211.913 15.3387 209.193 15.248V19.362C209.193 21.062 209.42 21.912 209.873 21.912H210.961C213.455 21.8667 215.177 21.5153 216.129 20.858L216.299 19.532C216.345 19.396 216.458 19.328 216.639 19.328C216.843 19.328 216.979 19.328 217.047 19.328C217.183 19.3733 217.251 19.4413 217.251 19.532C217.115 20.484 217.047 21.8213 217.047 23.544C217.047 23.6573 216.889 23.714 216.571 23.714C216.277 23.714 216.129 23.6573 216.129 23.544V23H210.077L204.297 23.068C204.139 23.068 204.059 22.898 204.059 22.558C204.059 22.218 204.127 22.048 204.263 22.048H205.793C206.043 22.048 206.19 22.0027 206.235 21.912C206.281 21.7987 206.303 21.5153 206.303 21.062V10.352C206.303 8.53867 206.077 7.632 205.623 7.632H204.399C204.127 7.632 203.991 7.462 203.991 7.122C203.991 6.75933 204.116 6.578 204.365 6.578Z" fill="#F3DFBE"/>
</svg>
